<svg width="448" height="373" viewBox="0 0 448 373" fill="none" xmlns="http://www.w3.org/2000/svg">
<rect x="24" y="0.5" width="400" height="55" rx="27.5" fill="#F1F3F4"/>
<path d="M69.5 21.3333H67.8333V18C67.8333 13.4 64.1 9.66663 59.5 9.66663C54.9 9.66663 51.1666 13.4 51.1666 18V21.3333H49.5C47.6666 21.3333 46.1666 22.8333 46.1666 24.6666V41.3333C46.1666 43.1666 47.6666 44.6666 49.5 44.6666H69.5C71.3333 44.6666 72.8333 43.1666 72.8333 41.3333V24.6666C72.8333 22.8333 71.3333 21.3333 69.5 21.3333ZM59.5 36.3333C57.6666 36.3333 56.1666 34.8333 56.1666 33C56.1666 31.1666 57.6666 29.6666 59.5 29.6666C61.3333 29.6666 62.8333 31.1666 62.8333 33C62.8333 34.8333 61.3333 36.3333 59.5 36.3333ZM64.6666 21.3333H54.3333V18C54.3333 15.15 56.65 12.8333 59.5 12.8333C62.35 12.8333 64.6666 15.15 64.6666 18V21.3333Z" fill="#31A451"/>
<path d="M89.726 26.806C90.104 26.54 90.748 26.134 91.434 26.134C92.358 26.134 92.694 26.68 92.694 27.534V32H94.234V27.184C94.234 25.742 93.534 24.86 92.134 24.86C91.196 24.86 90.384 25.294 89.754 25.952H89.726V22.2H88.186V32H89.726V26.806ZM96.1698 29.984C96.1698 31.51 96.7718 32.14 98.2838 32.14C98.6338 32.14 99.2498 32.098 99.6278 32.028L99.4878 30.838C99.2078 30.88 98.9978 30.908 98.8018 30.908C97.9898 30.908 97.7098 30.488 97.7098 29.718V26.106H99.5578V25H97.7098V23.04H96.3518L96.1698 25L95.1618 25.098V26.106H96.1698V29.984ZM101.42 29.984C101.42 31.51 102.022 32.14 103.534 32.14C103.884 32.14 104.5 32.098 104.878 32.028L104.738 30.838C104.458 30.88 104.248 30.908 104.052 30.908C103.24 30.908 102.96 30.488 102.96 29.718V26.106H104.808V25H102.96V23.04H101.602L101.42 25L100.412 25.098V26.106H101.42V29.984ZM107.65 25H106.11V34.8H107.65V31.342H107.678C108.14 31.832 108.882 32.14 109.638 32.14C111.598 32.14 112.298 30.516 112.298 28.5C112.298 26.484 111.682 24.86 109.722 24.86C108.938 24.86 108.14 25.21 107.678 25.7H107.65V25ZM110.674 28.5C110.674 29.802 110.338 30.866 109.12 30.866C108.434 30.866 107.902 30.544 107.65 30.348V26.652C107.902 26.456 108.434 26.134 109.12 26.134C110.338 26.134 110.674 27.212 110.674 28.5ZM119.092 29.942C119.092 28.416 117.706 28.038 116.32 27.744C115.228 27.506 115.004 27.24 115.004 26.848C115.004 26.61 115.172 26.092 116.222 26.092C116.726 26.092 117.594 26.134 118.728 26.414L119.008 25.182C118.168 24.972 117.244 24.86 116.138 24.86C114.472 24.86 113.464 25.476 113.464 26.89C113.464 28.416 114.626 28.906 116.166 29.186C117.202 29.382 117.552 29.634 117.552 30.054C117.552 30.306 117.342 30.908 116.236 30.908C115.732 30.908 114.738 30.866 113.604 30.586L113.324 31.818C114.164 32.028 115.312 32.14 116.418 32.14C118.084 32.14 119.092 31.412 119.092 29.942ZM120.26 30.082V32H121.8V30.082H120.26ZM120.26 25.56V27.492H121.8V25.56H120.26ZM129.529 22.48H128.157L122.977 32H124.349L129.529 22.48ZM137.089 22.48H135.717L130.537 32H131.909L137.089 22.48ZM139.82 22.2H138.28V32.042H139.456L139.722 31.342H139.75C140.268 31.832 141.052 32.14 141.808 32.14C143.768 32.14 144.468 30.516 144.468 28.5C144.468 26.484 143.852 24.86 141.892 24.86C141.108 24.86 140.31 25.21 139.848 25.7H139.82V22.2ZM142.844 28.5C142.844 29.802 142.508 30.866 141.29 30.866C140.604 30.866 140.072 30.544 139.82 30.348V26.652C140.072 26.456 140.604 26.134 141.29 26.134C142.508 26.134 142.844 27.212 142.844 28.5ZM148.378 26.134C149.414 26.134 149.862 26.456 149.862 27.282V27.87H148.434C146.922 27.87 145.494 28.388 145.494 30.026C145.494 31.244 146.292 32.14 147.692 32.14C148.588 32.14 149.204 31.902 149.834 31.3H149.862V32H151.402V27.184C151.402 25.336 150.464 24.86 148.728 24.86C147.916 24.86 146.908 24.972 145.942 25.168L146.166 26.4C147.188 26.19 147.832 26.134 148.378 26.134ZM149.862 30.432C149.582 30.656 148.994 30.95 148.308 30.95C147.552 30.95 147.034 30.572 147.034 29.9C147.034 29.186 147.454 28.794 148.518 28.794H149.862V30.432ZM154.312 26.806C154.69 26.54 155.334 26.134 156.02 26.134C156.944 26.134 157.28 26.68 157.28 27.534V32H158.82V27.184C158.82 25.742 158.12 24.86 156.72 24.86C155.782 24.86 154.97 25.294 154.34 25.952H154.312V25H152.772V32H154.312V26.806ZM160.056 28.5C160.056 30.684 160.938 32.14 163.57 32.14C164.452 32.14 165.138 32.028 165.978 31.818L165.712 30.586C164.564 30.866 164.074 30.866 163.57 30.866C162.296 30.866 161.68 29.97 161.68 28.5C161.68 27.03 162.296 26.134 163.57 26.134C164.074 26.134 164.564 26.134 165.712 26.414L165.978 25.182C165.138 24.972 164.452 24.86 163.57 24.86C160.938 24.86 160.056 26.316 160.056 28.5ZM169.596 26.134C170.632 26.134 171.08 26.456 171.08 27.282V27.87H169.652C168.14 27.87 166.712 28.388 166.712 30.026C166.712 31.244 167.51 32.14 168.91 32.14C169.806 32.14 170.422 31.902 171.052 31.3H171.08V32H172.62V27.184C172.62 25.336 171.682 24.86 169.946 24.86C169.134 24.86 168.126 24.972 167.16 25.168L167.384 26.4C168.406 26.19 169.05 26.134 169.596 26.134ZM171.08 30.432C170.8 30.656 170.212 30.95 169.526 30.95C168.77 30.95 168.252 30.572 168.252 29.9C168.252 29.186 168.672 28.794 169.736 28.794H171.08V30.432ZM178.835 27.366L180.123 32.07H181.845L183.903 25H182.279L180.963 30.362H180.935L179.619 25H178.121L176.889 30.362H176.861L175.475 25H173.753L175.853 32.07H177.561L178.807 27.366H178.835ZM191.225 28.794C191.295 28.332 191.323 28.038 191.337 27.744C191.379 25.994 190.553 24.86 188.425 24.86C185.835 24.86 184.911 26.316 184.911 28.5C184.911 30.684 185.835 32.14 188.481 32.14C189.391 32.14 190.161 32.07 191.071 31.818L190.875 30.586C190.021 30.838 189.335 30.866 188.691 30.866C187.221 30.866 186.619 30.026 186.577 28.794H191.225ZM188.341 26.05C189.321 26.05 189.727 26.554 189.755 27.282C189.769 27.436 189.755 27.632 189.713 27.828H186.577C186.661 26.792 187.123 26.05 188.341 26.05ZM194.015 22.2H192.475V32.042H193.651L193.917 31.342H193.945C194.463 31.832 195.247 32.14 196.003 32.14C197.963 32.14 198.663 30.516 198.663 28.5C198.663 26.484 198.047 24.86 196.087 24.86C195.303 24.86 194.505 25.21 194.043 25.7H194.015V22.2ZM197.039 28.5C197.039 29.802 196.703 30.866 195.485 30.866C194.799 30.866 194.267 30.544 194.015 30.348V26.652C194.267 26.456 194.799 26.134 195.485 26.134C196.703 26.134 197.039 27.212 197.039 28.5ZM199.899 30.082V32H201.439V30.082H199.899ZM204.337 25H202.797V34.8H204.337V31.342H204.365C204.827 31.832 205.569 32.14 206.325 32.14C208.285 32.14 208.985 30.516 208.985 28.5C208.985 26.484 208.369 24.86 206.409 24.86C205.625 24.86 204.827 25.21 204.365 25.7H204.337V25ZM207.361 28.5C207.361 29.802 207.025 30.866 205.807 30.866C205.121 30.866 204.589 30.544 204.337 30.348V26.652C204.589 26.456 205.121 26.134 205.807 26.134C207.025 26.134 207.361 27.212 207.361 28.5ZM210.221 25V32H211.761V25H210.221ZM210.221 22.48V24.314H211.761V22.48H210.221ZM212.98 28.5C212.98 30.684 213.862 32.14 216.494 32.14C217.376 32.14 218.062 32.028 218.902 31.818L218.636 30.586C217.488 30.866 216.998 30.866 216.494 30.866C215.22 30.866 214.604 29.97 214.604 28.5C214.604 27.03 215.22 26.134 216.494 26.134C216.998 26.134 217.488 26.134 218.636 26.414L218.902 25.182C218.062 24.972 217.376 24.86 216.494 24.86C213.862 24.86 212.98 26.316 212.98 28.5ZM221.386 26.806C221.764 26.54 222.408 26.134 223.094 26.134C224.018 26.134 224.354 26.68 224.354 27.534V32H225.894V27.184C225.894 25.742 225.194 24.86 223.794 24.86C222.856 24.86 222.044 25.294 221.414 25.952H221.386V22.2H219.846V32H221.386V26.806ZM227.27 25V32H228.81V25H227.27ZM227.27 22.48V24.314H228.81V22.48H227.27ZM231.708 26.806C232.086 26.54 232.73 26.134 233.416 26.134C234.34 26.134 234.676 26.68 234.676 27.534V32H236.216V27.184C236.216 25.742 235.516 24.86 234.116 24.86C233.178 24.86 232.366 25.294 231.736 25.952H231.708V25H230.168V32H231.708V26.806ZM237.452 28.5C237.452 30.684 238.334 32.14 240.966 32.14C241.848 32.14 242.534 32.028 243.374 31.818L243.108 30.586C241.96 30.866 241.47 30.866 240.966 30.866C239.692 30.866 239.076 29.97 239.076 28.5C239.076 27.03 239.692 26.134 240.966 26.134C241.47 26.134 241.96 26.134 243.108 26.414L243.374 25.182C242.534 24.972 241.848 24.86 240.966 24.86C238.334 24.86 237.452 26.316 237.452 28.5ZM245.859 26.806C246.237 26.54 246.881 26.134 247.567 26.134C248.491 26.134 248.827 26.68 248.827 27.534V32H250.367V27.184C250.367 25.742 249.667 24.86 248.267 24.86C247.329 24.86 246.517 25.294 245.887 25.952H245.859V22.2H244.319V32H245.859V26.806ZM254.417 26.134C255.453 26.134 255.901 26.456 255.901 27.282V27.87H254.473C252.961 27.87 251.533 28.388 251.533 30.026C251.533 31.244 252.331 32.14 253.731 32.14C254.627 32.14 255.243 31.902 255.873 31.3H255.901V32H257.441V27.184C257.441 25.336 256.503 24.86 254.767 24.86C253.955 24.86 252.947 24.972 251.981 25.168L252.205 26.4C253.227 26.19 253.871 26.134 254.417 26.134ZM255.901 30.432C255.621 30.656 255.033 30.95 254.347 30.95C253.591 30.95 253.073 30.572 253.073 29.9C253.073 29.186 253.493 28.794 254.557 28.794H255.901V30.432ZM258.811 30.082V32H260.351V30.082H258.811ZM261.569 28.5C261.569 30.684 262.451 32.14 265.083 32.14C265.965 32.14 266.651 32.028 267.491 31.818L267.225 30.586C266.077 30.866 265.587 30.866 265.083 30.866C263.809 30.866 263.193 29.97 263.193 28.5C263.193 27.03 263.809 26.134 265.083 26.134C265.587 26.134 266.077 26.134 267.225 26.414L267.491 25.182C266.651 24.972 265.965 24.86 265.083 24.86C262.451 24.86 261.569 26.316 261.569 28.5ZM271.6 26.134C272.902 26.134 273.28 27.114 273.28 28.5C273.28 29.886 272.902 30.866 271.6 30.866C270.298 30.866 269.92 29.886 269.92 28.5C269.92 27.114 270.298 26.134 271.6 26.134ZM271.6 32.14C274.008 32.14 274.904 30.684 274.904 28.5C274.904 26.316 274.008 24.86 271.6 24.86C269.192 24.86 268.296 26.316 268.296 28.5C268.296 30.684 269.192 32.14 271.6 32.14ZM277.673 26.806C278.051 26.526 278.583 26.134 279.227 26.134C280.095 26.134 280.459 26.666 280.487 27.478V32H282.027V27.604C282.027 27.324 282.013 27.058 281.999 26.834C282.391 26.54 282.951 26.134 283.581 26.134C284.463 26.134 284.841 26.68 284.841 27.534V32H286.381V27.184C286.381 25.742 285.681 24.86 284.281 24.86C283.343 24.86 282.517 25.294 281.817 26.05C281.537 25.28 280.907 24.86 279.927 24.86C278.975 24.86 278.261 25.336 277.701 25.952H277.673V25H276.133V32H277.673V26.806ZM294.124 22.48H292.752L287.572 32H288.944L294.124 22.48ZM296.855 25H295.315V34.8H296.855V31.342H296.883C297.345 31.832 298.087 32.14 298.843 32.14C300.803 32.14 301.503 30.516 301.503 28.5C301.503 26.484 300.887 24.86 298.927 24.86C298.143 24.86 297.345 25.21 296.883 25.7H296.855V25ZM299.879 28.5C299.879 29.802 299.543 30.866 298.325 30.866C297.639 30.866 297.107 30.544 296.855 30.348V26.652C297.107 26.456 297.639 26.134 298.325 26.134C299.543 26.134 299.879 27.212 299.879 28.5ZM302.739 25V32H304.279V25H302.739ZM302.739 22.48V24.314H304.279V22.48H302.739ZM305.497 28.5C305.497 30.684 306.379 32.14 309.011 32.14C309.893 32.14 310.579 32.028 311.419 31.818L311.153 30.586C310.005 30.866 309.515 30.866 309.011 30.866C307.737 30.866 307.121 29.97 307.121 28.5C307.121 27.03 307.737 26.134 309.011 26.134C309.515 26.134 310.005 26.134 311.153 26.414L311.419 25.182C310.579 24.972 309.893 24.86 309.011 24.86C306.379 24.86 305.497 26.316 305.497 28.5ZM313.904 26.806C314.282 26.54 314.926 26.134 315.612 26.134C316.536 26.134 316.872 26.68 316.872 27.534V32H318.412V27.184C318.412 25.742 317.712 24.86 316.312 24.86C315.374 24.86 314.562 25.294 313.932 25.952H313.904V22.2H312.364V32H313.904V26.806ZM319.788 25V32H321.328V25H319.788ZM319.788 22.48V24.314H321.328V22.48H319.788ZM324.226 26.806C324.604 26.54 325.248 26.134 325.934 26.134C326.858 26.134 327.194 26.68 327.194 27.534V32H328.734V27.184C328.734 25.742 328.034 24.86 326.634 24.86C325.696 24.86 324.884 25.294 324.254 25.952H324.226V25H322.686V32H324.226V26.806ZM329.97 28.5C329.97 30.684 330.852 32.14 333.484 32.14C334.366 32.14 335.052 32.028 335.892 31.818L335.626 30.586C334.478 30.866 333.988 30.866 333.484 30.866C332.21 30.866 331.594 29.97 331.594 28.5C331.594 27.03 332.21 26.134 333.484 26.134C333.988 26.134 334.478 26.134 335.626 26.414L335.892 25.182C335.052 24.972 334.366 24.86 333.484 24.86C330.852 24.86 329.97 26.316 329.97 28.5ZM338.376 26.806C338.754 26.54 339.398 26.134 340.084 26.134C341.008 26.134 341.344 26.68 341.344 27.534V32H342.884V27.184C342.884 25.742 342.184 24.86 340.784 24.86C339.846 24.86 339.034 25.294 338.404 25.952H338.376V22.2H336.836V32H338.376V26.806ZM346.934 26.134C347.97 26.134 348.418 26.456 348.418 27.282V27.87H346.99C345.478 27.87 344.05 28.388 344.05 30.026C344.05 31.244 344.848 32.14 346.248 32.14C347.144 32.14 347.76 31.902 348.39 31.3H348.418V32H349.958V27.184C349.958 25.336 349.02 24.86 347.284 24.86C346.472 24.86 345.464 24.972 344.498 25.168L344.722 26.4C345.744 26.19 346.388 26.134 346.934 26.134ZM348.418 30.432C348.138 30.656 347.55 30.95 346.864 30.95C346.108 30.95 345.59 30.572 345.59 29.9C345.59 29.186 346.01 28.794 347.074 28.794H348.418V30.432ZM357.699 22.48H356.327L351.147 32H352.519L357.699 22.48ZM358.889 32H360.429V22.2H358.889V32ZM364.952 26.134C366.254 26.134 366.632 27.114 366.632 28.5C366.632 29.886 366.254 30.866 364.952 30.866C363.65 30.866 363.272 29.886 363.272 28.5C363.272 27.114 363.65 26.134 364.952 26.134ZM364.952 32.14C367.36 32.14 368.256 30.684 368.256 28.5C368.256 26.316 367.36 24.86 364.952 24.86C362.544 24.86 361.648 26.316 361.648 28.5C361.648 30.684 362.544 32.14 364.952 32.14ZM370.423 32.854C370.423 32.364 370.703 32.14 371.067 31.846L373.587 31.986C374.329 32.042 374.595 32.364 374.595 32.728C374.595 33.554 373.531 33.932 372.355 33.932C371.207 33.932 370.423 33.61 370.423 32.854ZM372.509 28.556C371.627 28.556 371.067 28.108 371.067 27.24C371.067 26.372 371.571 25.882 372.509 25.882C373.363 25.882 373.923 26.372 373.923 27.24C373.923 28.094 373.363 28.556 372.509 28.556ZM370.297 31.636C369.499 32.042 369.149 32.504 369.149 33.12C369.149 34.366 370.115 34.94 372.089 34.94C374.917 34.94 376.219 34.142 376.219 32.434C376.219 31.412 375.561 30.866 374.119 30.754L371.683 30.6C371.179 30.572 371.151 30.152 371.319 29.774C371.375 29.662 371.459 29.522 371.557 29.424C371.725 29.48 372.089 29.564 372.509 29.564C374.133 29.564 375.337 28.836 375.337 27.24C375.337 26.764 375.197 26.26 374.777 25.924H376.023V25H373.489C373.223 24.916 372.887 24.86 372.509 24.86C370.745 24.86 369.611 25.672 369.611 27.24C369.611 28.136 370.059 28.85 370.759 29.2V29.228C370.101 29.592 369.779 30.152 369.765 30.642C369.751 31.02 369.919 31.384 370.297 31.608V31.636ZM377.25 25V32H378.79V25H377.25ZM377.25 22.48V24.314H378.79V22.48H377.25ZM381.689 26.806C382.067 26.54 382.711 26.134 383.397 26.134C384.321 26.134 384.657 26.68 384.657 27.534V32H386.197V27.184C386.197 25.742 385.497 24.86 384.097 24.86C383.159 24.86 382.347 25.294 381.717 25.952H381.689V25H380.149V32H381.689V26.806Z" fill="#2C2C30"/>
<rect x="24" y="0.5" width="400" height="55" rx="27.5" stroke="#DBDBDC"/>
<g clip-path="url(#clip0_1519_121099)">
<path d="M332.85 252.8C332.85 272 328.35 290.2 320.25 306.3C320.15 306.6 319.95 306.9 319.85 307.2C319.75 307.5 319.55 307.8 319.45 308C318.35 310.1 317.15 312.2 315.95 314.3C315.85 314.5 315.65 314.7 315.55 315C315.45 315.2 315.35 315.4 315.15 315.6C313.05 319 310.75 322.3 308.35 325.5C305.65 329 302.75 332.4 299.65 335.6C299.45 335.8 299.25 336 299.05 336.3C298.85 336.5 298.65 336.7 298.45 337C296.55 339 294.45 340.9 292.35 342.7C292.15 342.9 291.95 343 291.85 343.2C291.65 343.3 291.45 343.5 291.35 343.6C290.65 344.2 289.95 344.7 289.35 345.3C288.95 345.6 288.65 345.9 288.25 346.2C287.95 346.5 287.55 346.7 287.25 347C266.95 362.9 241.35 372.4 213.55 372.4C197.55 372.4 182.25 369.3 168.35 363.5C167.25 363.1 166.05 362.6 164.95 362.1C164.75 362 164.55 361.9 164.35 361.8C164.15 361.7 164.05 361.7 163.85 361.6C163.85 361.6 163.75 361.6 163.75 361.5C122.85 342.8 94.45 301.7 93.95 253.9C93.95 253.7 93.95 253.4 93.95 253.2V252.5C93.95 226.2 102.55 201.9 116.95 182.2C117.45 181.5 117.95 180.8 118.55 180.1C136.85 156.2 163.95 139.4 195.05 134.6C195.15 134.6 195.25 134.6 195.35 134.6H195.45C195.95 134.5 196.35 134.5 196.85 134.4C197.05 134.4 197.25 134.3 197.55 134.3C197.75 134.3 197.85 134.3 198.05 134.2C198.15 134.2 198.15 134.2 198.25 134.2C198.95 134.1 199.65 134 200.35 134C200.95 133.9 201.45 133.9 202.05 133.8C202.25 133.8 202.55 133.8 202.75 133.7C202.95 133.7 203.25 133.7 203.45 133.7C205.55 133.5 207.75 133.4 209.95 133.3H210.15C210.85 133.3 211.55 133.3 212.25 133.3H212.35C212.65 133.3 212.85 133.3 213.15 133.3H213.45C213.85 133.3 214.15 133.3 214.55 133.3C214.75 133.3 214.85 133.3 215.05 133.3H215.65C221.35 133.4 226.95 133.9 232.45 134.8C233.65 135 234.85 135.2 236.05 135.5C241.25 136.5 246.35 137.8 251.35 139.5C251.75 139.6 252.25 139.8 252.65 139.9C252.85 140 253.05 140.1 253.35 140.1C253.55 140.2 253.75 140.3 254.05 140.3C257.45 141.5 260.75 142.9 263.95 144.4C265.25 145 266.65 145.7 267.95 146.3C268.25 146.4 268.55 146.6 268.75 146.7C269.05 146.8 269.25 147 269.55 147.1C269.75 147.2 269.95 147.3 270.15 147.4C270.35 147.5 270.55 147.6 270.75 147.7C271.15 147.9 271.55 148.1 271.95 148.4C272.35 148.6 272.75 148.8 273.15 149.1C273.35 149.2 273.55 149.3 273.75 149.5C273.95 149.6 274.15 149.7 274.35 149.8C274.45 149.8 274.45 149.9 274.55 149.9C275.85 150.7 277.15 151.5 278.45 152.3C278.75 152.5 278.95 152.6 279.25 152.8C279.45 153 279.75 153.1 279.95 153.3C311.75 174.7 332.85 211.3 332.85 252.8Z" fill="#F4F6F9" stroke="#DEE3ED" stroke-width="2" stroke-miterlimit="10"/>
<path d="M315.45 314.9C315.35 315.1 315.25 315.3 315.05 315.5C312.95 318.9 310.65 322.2 308.25 325.4C305.55 328.9 302.65 332.3 299.55 335.5C299.35 335.7 299.15 335.9 298.95 336.2C298.75 336.4 298.55 336.6 298.35 336.9C296.45 338.9 294.35 340.8 292.25 342.6C292.05 342.8 291.85 342.9 291.75 343.1C290.85 341 290.05 338.9 289.25 336.8C289.15 336.6 289.05 336.4 289.05 336.1C288.95 335.9 288.85 335.7 288.85 335.5C286.25 328.3 284.25 320.9 284.25 313.3C284.25 308.5 284.75 303.6 286.35 299.1C286.95 297.5 287.65 295.8 288.65 294.4C289.15 293.7 289.75 292.9 290.45 292.3C291.95 291 293.95 290.1 295.85 290.1C296.05 290.1 296.25 290.1 296.55 290.1C296.75 290.1 296.95 290.2 297.25 290.2C297.35 290.2 297.35 290.2 297.45 290.2C297.65 290.2 297.75 290.3 297.95 290.3C298.05 290.3 298.05 290.3 298.15 290.4C298.35 290.5 298.65 290.6 298.85 290.7C300.35 291.5 301.55 292.8 302.65 294.2C307.05 299.5 310.55 305.5 313.95 311.6C314.25 312.7 314.85 313.8 315.45 314.9Z" fill="white"/>
<path d="M315.85 314.3C315.75 314.5 315.55 314.7 315.45 315C315.35 315.2 315.25 315.4 315.05 315.6C314.35 314.4 313.75 313.2 313.05 312C309.65 306 306.15 300 301.75 294.7C300.75 293.5 299.65 292.3 298.45 291.6C298.25 291.5 298.05 291.4 297.75 291.3C297.65 291.2 297.45 291.2 297.35 291.1C297.25 291.1 297.25 291.1 297.15 291C297.05 291 296.95 290.9 296.85 290.9C296.65 290.9 296.45 290.8 296.15 290.8C295.95 290.8 295.75 290.8 295.55 290.8C293.85 290.8 291.95 291.6 290.65 292.8C289.95 293.4 289.35 294.1 288.85 294.9C287.95 296.2 287.35 297.7 286.75 299.3C285.25 303.8 284.65 308.5 284.65 313.3C284.65 320.7 286.55 327.9 289.15 335.1C289.25 335.3 289.35 335.5 289.35 335.8C289.45 336 289.55 336.2 289.65 336.5C290.45 338.6 291.25 340.7 292.15 342.8C291.95 343 291.75 343.1 291.65 343.3C291.45 343.4 291.25 343.6 291.15 343.7C290.35 341.6 289.45 339.5 288.65 337.4C288.55 337.2 288.45 337 288.45 336.7C288.35 336.5 288.25 336.3 288.25 336.1C285.55 328.8 283.55 321.2 283.55 313.4C283.55 308.6 284.05 303.6 285.65 299C286.25 297.3 287.05 295.5 288.15 294C288.65 293.3 289.25 292.6 289.95 291.9C291.55 290.5 293.65 289.6 295.75 289.6H295.85C296.05 289.6 296.25 289.6 296.55 289.6C296.75 289.6 296.95 289.7 297.15 289.7H297.25C297.45 289.7 297.65 289.8 297.95 289.9C298.15 290 298.35 290.1 298.55 290.2C300.35 291 301.75 292.5 302.95 294C307.35 299.4 310.95 305.4 314.35 311.4C314.75 312.3 315.35 313.3 315.85 314.3Z" fill="#1C294A"/>
<path d="M319.85 307.2C319.75 307.5 319.55 307.8 319.45 308C318.35 310.1 317.15 312.2 315.95 314.3C315.85 314.5 315.65 314.7 315.55 315C315.45 315.2 315.35 315.4 315.15 315.6C313.05 319 310.75 322.3 308.35 325.5C305.65 329 302.75 332.4 299.65 335.6C299.45 335.8 299.25 336 299.05 336.3C298.85 336.5 298.65 336.7 298.45 337C296.55 339 294.45 340.9 292.35 342.7C292.15 342.9 291.95 343 291.85 343.2C291.65 343.3 291.45 343.5 291.35 343.6C290.65 344.2 289.95 344.7 289.35 345.3C288.95 345.6 288.65 345.9 288.25 346.2C280.85 347.5 275.05 347.6 274.05 345.5C273.85 345.1 273.65 344.7 273.55 344.1C273.55 344 273.45 343.9 273.45 343.8C273.45 343.8 273.45 343.8 273.45 343.7V343.6C273.35 343.4 273.35 343.3 273.35 343.1C273.25 342.9 273.25 342.7 273.15 342.5C272.75 340.9 272.35 338.8 271.95 336.4C271.95 336.1 271.85 335.9 271.85 335.6C271.75 335 271.65 334.4 271.55 333.8C271.45 333.3 271.45 332.7 271.35 332.2C271.35 332.1 271.35 331.9 271.25 331.8C271.25 331.3 271.15 330.9 271.05 330.4C270.95 329.8 270.85 329.2 270.85 328.5C270.75 328 270.75 327.4 270.65 326.8C269.85 320 269.15 311.8 268.55 302.9C268.45 301.5 268.35 300 268.25 298.6C268.15 296.6 268.05 294.5 267.95 292.4C267.95 291.5 267.85 290.6 267.85 289.7C267.85 289.5 267.85 289.3 267.85 289.1C267.75 287.5 267.65 285.8 267.65 284.2C267.65 283.3 267.55 282.3 267.55 281.4C267.35 276.4 267.15 271.3 267.15 266.4C266.75 245.8 277.85 238.4 286.75 237C286.85 237 287.05 237 287.15 236.9C287.25 236.9 287.45 236.9 287.55 236.9C287.85 236.9 288.15 236.8 288.45 236.8C288.55 236.8 288.55 236.8 288.65 236.8C288.85 236.8 289.05 236.8 289.25 236.8C289.45 236.8 289.65 236.8 289.85 236.8C290.35 236.8 290.75 236.8 291.15 236.8C291.45 236.8 291.75 236.8 291.95 236.9C292.65 237 293.25 237.1 293.85 237.2C295.35 237.6 296.55 238.3 297.15 239C297.75 239.8 298.55 241.3 299.45 243.5C299.75 244.1 300.05 244.8 300.25 245.5C300.35 245.7 300.45 245.9 300.45 246.1C305.35 259.4 313.95 287 319.85 307.2Z" fill="white"/>
<path d="M296.05 239.2L295.75 238.9C295.55 238.7 295.15 238.4 294.65 238C294.25 237.8 293.85 237.5 293.35 237.2C292.75 237.1 292.15 236.9 291.45 236.9C291.15 236.9 290.95 236.8 290.65 236.8C290.25 236.8 289.85 236.8 289.35 236.8C289.15 236.8 288.95 236.8 288.75 236.8C288.55 236.8 288.35 236.8 288.15 236.8C288.05 236.8 288.05 236.8 287.95 236.8C287.65 236.8 287.35 236.8 287.05 236.9C286.95 236.9 286.75 236.9 286.65 236.9C286.55 236.9 286.35 236.9 286.25 237C286.45 237.2 286.65 237.4 286.85 237.6C287.15 237.6 287.45 237.5 287.65 237.5C287.95 237.5 288.25 237.5 288.55 237.4C288.85 237.4 289.05 237.4 289.35 237.4C292.65 237.4 295.25 238.3 296.05 239.3V239.2ZM296.05 239.2L295.75 238.9C295.55 238.7 295.15 238.4 294.65 238C294.25 237.8 293.85 237.5 293.35 237.2C292.75 237.1 292.15 236.9 291.45 236.9C291.15 236.9 290.95 236.8 290.65 236.8C290.25 236.8 289.85 236.8 289.35 236.8C289.15 236.8 288.95 236.8 288.75 236.8C288.55 236.8 288.35 236.8 288.15 236.8C288.05 236.8 288.05 236.8 287.95 236.8C287.65 236.8 287.35 236.8 287.05 236.9C286.95 236.9 286.75 236.9 286.65 236.9C286.55 236.9 286.35 236.9 286.25 237C286.45 237.2 286.65 237.4 286.85 237.6C287.15 237.6 287.45 237.5 287.65 237.5C287.95 237.5 288.25 237.5 288.55 237.4C288.85 237.4 289.05 237.4 289.35 237.4C292.65 237.4 295.25 238.3 296.05 239.3V239.2ZM313.15 282.9C309.95 272.7 306.65 262.5 303.85 254.5C302.65 251 301.45 247.9 300.45 245.4C300.15 244.7 299.85 244 299.55 243.3C298.65 241.2 297.85 239.7 297.25 238.8L297.15 238.7C296.45 237.8 295.15 237.1 293.55 236.7C292.95 236.5 292.25 236.4 291.55 236.3C290.85 236.2 290.05 236.2 289.25 236.2C288.55 236.2 287.95 236.2 287.15 236.3C286.85 236.3 286.55 236.4 286.25 236.4C285.95 236.4 285.65 236.5 285.45 236.5C281.65 237.2 277.45 238.9 273.95 242.3C269.25 246.8 265.75 254.2 265.75 265.5C265.75 265.8 265.75 266.2 265.75 266.5C266.05 283.8 267.05 301.8 268.35 316.4C269.05 323.7 269.75 330.1 270.55 335.2C271.05 338.3 271.45 340.8 272.05 342.7C272.05 342.9 272.15 343.1 272.25 343.3C272.35 343.5 272.35 343.7 272.45 343.9C272.65 344.6 272.85 345.2 273.05 345.6C273.45 346.4 274.25 346.9 275.35 347.2C276.35 347.5 277.65 347.6 279.15 347.6C281.35 347.6 283.95 347.3 286.95 346.8C287.35 346.5 287.65 346.3 287.95 346C288.35 345.7 288.65 345.4 289.05 345.1C285.25 345.8 281.75 346.3 279.15 346.3C277.75 346.3 276.55 346.2 275.75 345.9C274.95 345.6 274.45 345.3 274.25 344.9C274.05 344.5 273.85 344 273.65 343.4C273.55 343.2 273.55 343 273.45 342.8C273.35 342.6 273.35 342.4 273.25 342.2C272.75 340.3 272.25 337.8 271.85 334.8C269.95 322.7 268.35 302.4 267.55 281.4C267.35 276.4 267.15 271.3 267.15 266.3V265.3C267.15 254.3 270.55 247.3 274.95 243.1C278.55 239.6 282.95 238 286.75 237.5C287.05 237.5 287.35 237.4 287.55 237.4C287.85 237.4 288.15 237.4 288.45 237.3C288.75 237.3 288.95 237.3 289.25 237.3C292.55 237.3 295.15 238.2 295.95 239.2C295.95 239.2 296.05 239.2 296.05 239.3C296.65 240 297.55 241.9 298.65 244.6C298.75 244.9 298.95 245.3 299.05 245.7C299.25 246.2 299.45 246.7 299.65 247.3C304.95 261 313.45 288.1 319.15 307.8C319.35 307.5 319.45 307.2 319.55 307C319.75 306.7 319.85 306.4 319.95 306.1C318.15 299.1 315.65 290.9 313.15 282.9ZM296.05 239.2L295.75 238.9C295.55 238.7 295.15 238.4 294.65 238C294.25 237.8 293.85 237.5 293.35 237.2C292.75 237.1 292.15 236.9 291.45 236.9C291.15 236.9 290.95 236.8 290.65 236.8C290.25 236.8 289.85 236.8 289.35 236.8C289.15 236.8 288.95 236.8 288.75 236.8C288.55 236.8 288.35 236.8 288.15 236.8C288.05 236.8 288.05 236.8 287.95 236.8C287.65 236.8 287.35 236.8 287.05 236.9C286.95 236.9 286.75 236.9 286.65 236.9C286.55 236.9 286.35 236.9 286.25 237C286.45 237.2 286.65 237.4 286.85 237.6C287.15 237.6 287.45 237.5 287.65 237.5C287.95 237.5 288.25 237.5 288.55 237.4C288.85 237.4 289.05 237.4 289.35 237.4C292.65 237.4 295.25 238.3 296.05 239.3V239.2ZM296.05 239.2L295.75 238.9C295.55 238.7 295.15 238.4 294.65 238C294.25 237.8 293.85 237.5 293.35 237.2C292.75 237.1 292.15 236.9 291.45 236.9C291.15 236.9 290.95 236.8 290.65 236.8C290.25 236.8 289.85 236.8 289.35 236.8C289.15 236.8 288.95 236.8 288.75 236.8C288.55 236.8 288.35 236.8 288.15 236.8C288.05 236.8 288.05 236.8 287.95 236.8C287.65 236.8 287.35 236.8 287.05 236.9C286.95 236.9 286.75 236.9 286.65 236.9C286.55 236.9 286.35 236.9 286.25 237C286.45 237.2 286.65 237.4 286.85 237.6C287.15 237.6 287.45 237.5 287.65 237.5C287.95 237.5 288.25 237.5 288.55 237.4C288.85 237.4 289.05 237.4 289.35 237.4C292.65 237.4 295.25 238.3 296.05 239.3V239.2Z" fill="#1C294A"/>
<path d="M308.25 325.5C305.55 329 302.65 332.4 299.55 335.6C299.35 335.8 299.15 336 298.95 336.3C298.75 336.5 298.55 336.7 298.35 337C296.45 339 294.35 340.9 292.25 342.7C292.05 342.9 291.85 343 291.75 343.2C291.55 343.3 291.35 343.5 291.25 343.6C290.55 344.2 289.85 344.7 289.25 345.3C288.85 345.6 288.55 345.9 288.15 346.2C280.75 347.5 274.95 347.6 273.95 345.5C273.75 345.1 273.55 344.7 273.45 344.1C273.45 344 273.35 343.9 273.35 343.8C273.35 343.8 273.35 343.8 273.35 343.7V343.6C273.25 343.4 273.25 343.3 273.25 343.1C273.15 342.9 273.15 342.7 273.05 342.5C272.65 340.9 272.25 338.8 271.85 336.4C271.85 336.1 271.75 335.9 271.75 335.6C271.65 335 271.55 334.4 271.45 333.8C271.35 333.3 271.35 332.7 271.25 332.2C271.25 332.1 271.25 331.9 271.15 331.8C271.15 331.3 271.05 330.9 270.95 330.4C270.85 329.8 270.75 329.2 270.75 328.5C270.65 328 270.65 327.4 270.55 326.8C269.75 320 269.05 311.8 268.45 302.9C268.35 301.5 268.25 300 268.15 298.6C268.05 296.6 267.95 294.5 267.85 292.4C267.85 291.5 267.75 290.6 267.75 289.7C267.75 289.5 267.75 289.3 267.75 289.1C267.65 287.5 267.55 285.8 267.55 284.2C267.55 283.3 267.45 282.3 267.45 281.4C267.65 281.4 267.85 281.4 268.15 281.5C276.15 282.6 282.85 287.4 288.45 293.8C288.65 294 288.75 294.1 288.85 294.3C288.95 294.5 289.15 294.6 289.25 294.8C291.35 297.2 293.25 299.8 295.05 302.5C295.25 302.8 295.45 303.1 295.65 303.4C295.85 303.7 296.05 304 296.25 304.3C296.85 305.2 297.35 306.1 297.95 307C298.15 307.4 298.45 307.8 298.65 308.1C298.85 308.5 299.15 308.9 299.35 309.2C301.65 313.2 303.75 317.2 305.65 321C306.05 322.8 307.05 324.3 308.25 325.5Z" fill="#1C294A"/>
<path d="M202.05 226.6C202.25 232.4 216.35 237.2 233.35 236.5C250.45 235.9 264.05 230 263.85 224.3C263.65 218.5 249.65 215.7 232.55 216.3C215.55 217 201.85 220.9 202.05 226.6Z" fill="#1C294A"/>
<path d="M216.35 221.2C177.25 234.2 164.85 244.5 173.85 287.6C177.05 303 180.15 331 202.35 339.5C239.75 353.8 292.85 344.5 293.65 328.7C296.45 277.4 301.25 255.7 294.35 245.4C286.45 233.6 274.15 226.6 254.35 220.3L252.85 179.9C252.45 169.4 243.65 161.2 233.15 161.6C222.65 162 214.45 170.8 214.85 181.3L216.35 221.2Z" fill="white"/>
<path d="M216.35 221.2L216.15 220.6C200.55 225.8 189.25 230.5 181.65 237.2C174.05 243.8 170.45 252.4 170.45 264.9C170.45 271.4 171.45 278.9 173.25 287.8C174.85 295.5 176.45 306.3 180.35 316.4C184.35 326.5 190.75 335.8 202.05 340.1C215.05 345.1 229.95 347.2 243.95 347.2C257.15 347.2 269.45 345.3 278.65 342.1C283.25 340.5 287.05 338.6 289.75 336.3C292.45 334.1 294.15 331.5 294.25 328.7C295.95 296.8 298.55 276.3 298.55 262.9C298.55 254.8 297.65 249.1 294.85 245C286.75 233 274.35 226 254.55 219.7L254.35 220.3H255.05L253.55 179.9C253.15 169.3 244.45 160.9 233.85 160.9H233.15C222.55 161.3 214.15 170 214.15 180.6C214.15 180.8 214.15 181.1 214.15 181.3L215.65 221.1L216.35 221.2L216.15 220.6L216.35 221.2H217.05L215.55 181.4V180.7C215.55 170.9 223.35 162.7 233.25 162.3H233.95C243.75 162.3 251.95 170.1 252.35 180L253.85 220.4C253.85 220.7 254.05 220.9 254.35 221C274.05 227.3 286.15 234.2 293.95 245.8C296.45 249.5 297.35 254.9 297.35 262.9C297.35 276.2 294.85 296.7 293.05 328.6C292.95 330.9 291.55 333.2 288.95 335.3C281.35 341.6 263.55 345.9 243.95 345.9C230.15 345.9 215.35 343.8 202.55 338.9C191.65 334.7 185.45 325.8 181.55 315.9C177.65 306 176.05 295.2 174.45 287.5C172.65 278.7 171.65 271.2 171.65 264.9C171.65 252.7 175.15 244.6 182.45 238.2C189.75 231.8 200.95 227 216.55 221.9C216.85 221.8 217.05 221.5 216.95 221.3L216.35 221.2Z" fill="#1C294A"/>
<path d="M297.65 281.2C297.65 281.4 297.65 281.5 297.65 281.7C297.65 284.3 297.75 287 297.85 289.9C297.85 290.1 297.85 290.4 297.85 290.6C297.85 290.8 297.85 291.1 297.85 291.3C297.95 296.7 298.15 302.4 298.25 308.3C298.45 317.3 298.65 326.8 298.85 336.3C298.65 336.5 298.45 336.7 298.25 337C296.35 339 294.25 340.9 292.15 342.7C291.95 342.9 291.75 343 291.65 343.2C291.45 343.3 291.25 343.5 291.15 343.6C290.45 344.2 289.75 344.7 289.15 345.3C288.75 345.6 288.45 345.9 288.05 346.2C287.75 346.5 287.35 346.7 287.05 347C266.75 362.9 241.15 372.4 213.35 372.4C197.35 372.4 182.05 369.3 168.15 363.5C167.05 363.1 165.85 362.6 164.75 362.1C164.55 362 164.35 361.9 164.15 361.8C164.45 354.3 164.75 347.2 164.95 340.3V340.2C165.45 327.3 165.75 315.6 166.05 305C166.25 298.8 166.35 293 166.45 287.5C166.45 287.2 166.45 286.9 166.45 286.6V286.1C166.45 286 166.45 286 166.45 285.9C166.65 277.4 166.75 269.9 166.85 263.4C166.85 263.2 166.85 263 166.85 262.7V262C166.85 260.3 166.85 258.7 166.95 257.2V256.3C166.95 256 166.95 255.7 166.95 255.4C166.95 253.1 166.95 250.9 166.95 248.8C166.95 244.8 166.95 241.3 166.95 238.5C166.95 232.1 166.85 228.7 166.85 228.1C166.75 226.7 179.95 224.3 191.35 222.6C191.85 222.5 192.45 222.4 192.95 222.4C197.55 221.8 201.85 221.3 204.55 221.1C205.15 221.1 205.65 221 206.15 221C206.35 221 206.55 221 206.65 221C206.85 221 206.95 221 207.05 221H207.15C207.25 221 207.35 221 207.45 221C207.85 221.1 207.85 221.2 207.65 221.4C207.65 221.4 207.55 221.4 207.55 221.5L207.45 221.6V221.7C207.45 221.8 207.55 222 207.65 222.2C207.85 222.4 208.05 222.7 208.45 222.9C208.65 223.1 208.85 223.2 209.05 223.4C209.25 223.5 209.45 223.7 209.75 223.9C214.75 227.1 226.75 232.6 235.15 236.3C240.05 238.5 243.75 240 244.15 240.2C244.15 240.2 246.35 237.6 249.15 234.2C252.35 230.1 256.25 225 257.85 222C257.95 221.8 258.05 221.6 258.15 221.4C258.25 221.2 258.35 221 258.45 220.8C258.45 220.7 258.55 220.5 258.55 220.4C258.65 220 258.55 219.7 258.35 219.6C258.45 219.7 258.85 219.8 259.25 220C260.05 220.4 261.25 220.9 262.85 221.6C270.75 225.2 286.95 232.5 293.65 236.5C295.55 237.6 296.65 238.5 296.65 238.9C296.65 239.1 297.75 240.7 298.95 243.4C299.25 244 299.55 244.7 299.75 245.4V246.1V247.3L300.05 273.9V274.8V275.7V277.7V278.4L297.65 281.2Z" fill="white"/>
<path d="M300.05 246.2C299.95 246.2 299.85 246.2 299.85 246.2C299.55 246.2 299.35 246 299.25 245.8C299.15 245.4 298.95 245.1 298.85 244.7C297.95 242.6 297.05 241 296.55 240.1C296.35 239.7 296.25 239.5 296.15 239.3V239.1L295.95 238.8C295.75 238.6 295.35 238.3 294.85 237.9C294.45 237.7 294.05 237.4 293.55 237.1C293.05 236.8 292.45 236.5 291.85 236.1C291.45 235.9 291.05 235.6 290.55 235.4C286.95 233.5 282.15 231.1 277.45 228.9C277.35 228.9 277.35 228.8 277.25 228.8C272.35 226.5 267.45 224.3 263.85 222.6C263.75 222.6 263.75 222.6 263.65 222.5C261.85 221.7 260.35 221 259.45 220.6C259.45 220.7 259.45 220.8 259.35 220.9C259.25 221.1 259.25 221.3 259.15 221.5C259.05 221.7 258.95 221.8 258.85 222C258.45 222.8 257.85 223.7 257.25 224.7C255.85 226.8 254.15 229.2 252.35 231.5C251.85 232.2 251.25 232.9 250.75 233.6C247.75 237.3 245.25 240.4 245.25 240.4C245.05 240.6 244.75 240.7 244.55 240.6C244.55 240.6 240.15 238.7 234.35 236.2C228.45 233.6 221.05 230.2 215.65 227.4C213.25 226.1 211.15 225 209.75 224C209.55 223.8 209.35 223.7 209.05 223.5C208.85 223.3 208.65 223.2 208.45 223C208.35 222.9 208.15 222.8 208.05 222.7C207.85 222.4 207.65 222.2 207.55 221.9C207.55 221.8 207.45 221.7 207.45 221.6C207.35 221.6 207.25 221.6 207.15 221.6C206.95 221.6 206.75 221.6 206.55 221.6C206.35 221.6 206.15 221.6 205.95 221.6C203.35 221.7 198.85 222.2 193.95 222.9C193.45 223 192.85 223.1 192.35 223.1C186.55 223.9 180.35 225 175.55 226C172.15 226.7 169.45 227.4 168.35 228C168.15 228.1 168.05 228.2 167.95 228.2C168.05 229.1 168.05 232.4 168.05 238.1C168.05 239.3 168.05 240.5 168.05 241.9C168.05 243.8 168.05 246 168.05 248.3C168.05 250.6 168.05 253.1 167.95 255.9V256.8C167.95 257.1 167.95 257.4 167.95 257.7C167.95 259.1 167.95 260.5 167.95 261.9V262.6C167.95 262.8 167.95 263 167.95 263.3C167.85 269.9 167.75 277.4 167.55 285.9C167.55 286 167.55 286.1 167.55 286.2C167.55 286.4 167.55 286.6 167.55 286.7C167.55 287 167.55 287.3 167.55 287.5C167.15 307.2 166.35 331.9 165.15 361.9C164.95 361.8 164.75 361.7 164.55 361.6C164.35 361.5 164.25 361.5 164.05 361.4C164.05 361.4 163.95 361.4 163.95 361.3C165.15 331.3 165.85 306.7 166.35 287.1C166.35 286.6 166.35 286.2 166.35 285.7C166.55 277.3 166.65 269.8 166.75 263.2C166.75 263 166.75 262.8 166.75 262.5V261.8C166.75 259.9 166.75 258.2 166.85 256.5C166.85 256.2 166.85 255.9 166.85 255.6V255C166.85 253 166.85 251.2 166.85 249.5C166.85 246.8 166.85 244.4 166.85 242.2C166.85 241.1 166.85 240 166.85 239C166.85 232.7 166.75 229.2 166.75 228.5V228.4V228.3C166.75 228 166.85 227.8 167.05 227.7L167.45 227.3C167.75 227.1 168.15 226.9 168.65 226.7C169.65 226.3 170.95 226 172.55 225.6C175.75 224.8 180.15 224 184.65 223.3C186.85 222.9 189.15 222.6 191.35 222.3C191.85 222.2 192.45 222.1 192.95 222.1C197.05 221.5 200.85 221.1 203.75 220.8C204.25 220.7 204.85 220.7 205.25 220.7C205.85 220.7 206.35 220.6 206.85 220.6H207.25C207.65 220.6 207.95 220.6 208.15 220.6C208.25 220.6 208.35 220.6 208.45 220.7C208.55 220.7 208.75 220.8 208.95 221L209.15 221.5C209.15 221.8 209.05 221.9 208.95 222C209.05 222.1 209.25 222.3 209.55 222.6C209.65 222.7 209.85 222.8 209.95 222.9C210.15 223 210.35 223.2 210.65 223.3C210.85 223.4 211.05 223.6 211.35 223.7C211.55 223.8 211.75 224 211.95 224.1C214.05 225.3 216.95 226.8 220.15 228.4C225.75 231.1 232.35 234.1 237.35 236.3C238.05 236.6 238.75 236.9 239.45 237.2C242.05 238.3 243.95 239.1 244.75 239.5C245.05 239.1 245.55 238.6 246.15 237.8C246.85 236.9 247.85 235.8 248.85 234.5C249.25 233.9 249.75 233.4 250.25 232.7C253.25 228.9 256.55 224.5 257.95 221.8C257.95 221.7 258.05 221.7 258.05 221.6C258.15 221.5 258.15 221.3 258.25 221.2C258.35 221 258.45 220.8 258.55 220.6C258.65 220.4 258.65 220.2 258.65 220.1L258.55 220H258.45L258.35 219.6L258.55 219.1L259.05 218.9H259.25H259.35C259.45 219 259.75 219.1 259.95 219.2C260.05 219.2 260.15 219.3 260.35 219.3C260.45 219.3 260.65 219.4 260.75 219.5C260.75 219.5 260.75 219.5 260.85 219.5C261.25 219.7 261.75 219.9 262.35 220.2C264.25 221.1 267.05 222.3 270.15 223.7C276.35 226.5 283.85 230.1 289.55 233C293.35 235 296.25 236.6 297.45 237.7C297.75 238 297.95 238.2 298.05 238.5V238.6L298.25 239C298.45 239.3 298.65 239.8 298.95 240.4C299.35 241.1 299.75 242 300.25 243C300.55 243.6 300.85 244.3 301.15 245.1C300.55 245.7 300.45 246.1 300.05 246.2Z" fill="#1C294A"/>
<path d="M300.75 279L298.35 281.5C298.45 284.3 298.45 287.1 298.55 290.1C298.55 290.3 298.55 290.6 298.55 290.8C298.55 291.1 298.55 291.3 298.55 291.6C298.65 297.3 298.85 303.3 298.95 309.5C299.15 318 299.35 326.8 299.55 335.7C299.35 335.9 299.15 336.1 298.95 336.4C298.75 336.6 298.55 336.8 298.35 337.1C298.15 327 297.85 316.9 297.65 307.3C297.55 301.7 297.35 296.3 297.25 291.2C297.25 291 297.25 290.7 297.25 290.5C297.25 290.3 297.25 290 297.25 289.8C297.25 289.4 297.25 288.9 297.25 288.4C297.25 286.2 297.15 284 297.15 281.9C297.15 281.7 297.15 281.5 297.15 281.4L297.25 281.2L297.35 280.9L297.95 280.3L299.95 278.2C300.05 278.1 300.25 278 300.45 278C300.65 278 300.75 278.1 300.95 278.2C300.95 278.3 300.95 278.8 300.75 279Z" fill="#1C294A"/>
<path d="M298.35 277.8L301.95 274C302.25 273.7 302.15 273.3 301.95 273.1C301.65 272.8 301.25 272.9 301.05 273.1L297.45 276.9C297.15 277.2 297.25 277.6 297.45 277.8C297.65 278.1 298.15 278 298.35 277.8Z" fill="#1C294A"/>
<path d="M180.85 313.9C180.75 314.3 180.65 314.6 180.55 314.9C180.45 315.2 180.35 315.6 180.25 315.9C179.95 316.8 179.55 317.7 179.25 318.5C177.35 323 174.45 327.1 172.95 331.8C170.05 341.2 173.05 351.9 169.25 361.1C168.85 362 168.45 362.8 168.05 363.6C166.95 363.2 165.75 362.7 164.65 362.2C164.45 362.1 164.25 362 164.05 361.9C163.85 361.8 163.75 361.8 163.55 361.7C163.95 354.6 164.25 347.5 164.85 340.5V340.4C166.05 327.4 165.95 316.7 165.95 305.2C165.95 299.7 165.95 294 166.25 287.7C166.25 287.4 166.25 287.2 166.25 286.9C166.25 286.9 166.25 271.7 166.35 271.7C166.45 271.7 166.75 271.8 167.05 271.9C168.55 272.5 171.75 274.1 173.65 275.1C173.95 275.3 174.15 275.4 174.45 275.5C174.75 275.7 175.05 275.8 175.15 275.9H175.25C178.75 278 179.85 279.7 181.25 282.1C181.75 283.1 182.15 299.4 182.35 300.6C183.15 304.6 182.15 309.6 180.85 313.9Z" fill="#1C294A"/>
<path d="M198.45 134.3C198.45 134.3 200.05 134.5 202.45 134.7C206.05 135.1 211.55 135.7 216.35 136.3C218.75 136.6 220.95 136.9 222.75 137.2C223.65 137.3 224.35 137.5 224.95 137.6C225.55 137.7 225.95 137.8 225.95 137.9L226.05 138C226.05 138 226.15 138.2 226.15 138.5C226.15 139.2 225.75 140.4 225.15 141.6C224.55 142.8 223.75 144.1 223.05 145C222.65 145.6 222.75 146.4 223.35 146.8C223.95 147.2 224.75 147.1 225.15 146.5C225.95 145.4 226.85 144.1 227.55 142.7C228.25 141.3 228.75 139.8 228.75 138.4C228.75 137.8 228.65 137.3 228.35 136.7C228.05 136.2 227.55 135.7 226.95 135.4C226.65 135.3 226.35 135.2 226.05 135.1C224.75 134.8 222.45 134.4 219.65 134C211.35 132.9 198.75 131.6 198.75 131.6C198.05 131.5 197.35 132.1 197.35 132.8C197.15 133.6 197.75 134.2 198.45 134.3Z" fill="#FFCE03"/>
<path d="M225.55 194.6L217.75 193.5C203.05 191.3 194.55 179.1 196.95 163.2C199.25 147.3 200.05 143.4 202.95 132.2C207.15 116.9 219.35 107.4 234.05 109.6L241.85 110.8C260.05 113.5 278.85 123.8 268.45 152.7C258.95 178.6 254.05 198.8 225.55 194.6Z" fill="white"/>
<path d="M225.55 194.6L225.65 194L217.85 192.8C205.05 190.9 197.25 181.4 197.15 168.3C197.15 166.7 197.25 165 197.55 163.2C199.85 147.3 200.65 143.5 203.55 132.3L202.95 132.1L203.55 132.3C207.25 118.7 217.45 109.9 229.95 109.9C231.25 109.9 232.65 110 233.95 110.2L241.75 111.3C248.95 112.4 256.25 114.6 261.75 118.8C267.15 122.9 270.75 128.9 270.85 137.5C270.85 141.8 269.95 146.7 267.85 152.4C263.55 164.3 260.25 174.9 255.25 182.4C250.25 189.9 243.75 194.5 232.75 194.5C230.55 194.5 228.25 194.3 225.75 194L225.55 194.6L225.45 195.3C228.05 195.7 230.45 195.9 232.65 195.9C244.05 195.9 251.15 191 256.25 183.2C261.45 175.4 264.75 164.7 269.05 152.9C271.15 147.1 272.05 142 272.05 137.6C272.05 128.6 268.15 122.2 262.45 117.9C256.75 113.6 249.25 111.3 241.85 110.2L234.05 109C232.65 108.8 231.25 108.7 229.85 108.7C216.65 108.7 206.05 118 202.25 132.1C199.35 143.3 198.55 147.2 196.25 163.1C195.95 164.9 195.85 166.6 195.85 168.3C195.85 181.9 204.25 192.1 217.65 194.1L225.45 195.2L225.55 194.6Z" fill="#1C294A"/>
<path d="M274.45 119C272.15 115.7 268.85 113.2 264.55 112.3C263.45 112 261.45 112.3 260.45 111.9C259.25 111.3 257.95 109.4 256.95 108.5C251.85 104.1 244.65 100.8 237.75 101.3C234.35 101.6 230.75 104.4 229.05 107.2C226.45 111.5 232.45 112.7 235.45 114.4C239.65 116.8 243.65 119.5 246.85 123.2C251.45 128.6 255.45 138.9 252.25 149.1C251.35 151.9 250.45 158.3 251.45 159.9C252.85 162.3 255.25 157.7 257.15 156.8C257.65 158.9 252.45 192.6 252.45 192.6C252.45 192.6 254.75 194.6 261.55 179.9C268.35 165.2 274.65 148.8 277.65 136.3C278.85 130.2 277.75 123.8 274.45 119Z" fill="#1C294A"/>
<path d="M274.45 119L274.95 118.6C272.55 115.2 269.05 112.6 264.65 111.6C263.95 111.4 263.15 111.5 262.45 111.4C261.75 111.4 261.05 111.3 260.75 111.2C260.35 111 259.75 110.4 259.15 109.8C258.55 109.1 257.95 108.4 257.45 107.9C252.65 103.7 245.95 100.5 239.25 100.5C238.75 100.5 238.25 100.5 237.75 100.6C234.05 100.9 230.35 103.8 228.55 106.8C228.05 107.6 227.85 108.4 227.85 109.1C227.85 110 228.25 110.7 228.75 111.3C229.55 112.2 230.75 112.8 231.95 113.4C233.15 113.9 234.35 114.4 235.15 114.9C239.35 117.2 243.25 119.9 246.35 123.6C249.65 127.5 252.75 134.2 252.75 141.4C252.75 143.8 252.45 146.4 251.65 148.9C251.05 151 250.35 154.7 250.35 157.4C250.35 158.6 250.45 159.6 250.85 160.3C251.15 160.9 251.75 161.3 252.35 161.3C252.95 161.3 253.45 161 253.85 160.7C254.55 160.2 255.15 159.5 255.75 158.8C256.35 158.2 256.95 157.6 257.35 157.4L257.05 156.8L256.45 157V157.3C256.45 159.5 255.25 168.4 254.05 176.6C253.45 180.7 252.85 184.7 252.45 187.6C251.95 190.5 251.75 192.5 251.75 192.5L251.95 193.1C252.05 193.2 252.35 193.4 252.75 193.4C253.55 193.4 254.45 192.9 255.95 191.1C257.45 189.3 259.45 186 262.15 180.2C268.95 165.5 275.25 149.1 278.35 136.5C278.75 134.7 279.05 132.8 279.05 131C279.05 126.6 277.85 122.3 275.35 118.8L274.45 119L273.95 119.4C276.25 122.6 277.35 126.7 277.35 130.9C277.35 132.6 277.15 134.4 276.75 136.1C273.75 148.6 267.45 165 260.65 179.6C257.95 185.3 256.05 188.5 254.65 190.2C253.25 191.9 252.55 192 252.45 192L252.35 192.3L252.55 192L252.45 191.9L252.35 192.2L252.55 191.9L252.15 192.4L252.75 192.5C252.75 192.5 253.95 184.8 255.15 176.6C256.35 168.3 257.55 159.6 257.55 157.1C257.55 156.8 257.55 156.7 257.45 156.5L257.05 156.1H256.45C255.55 156.6 254.75 157.6 253.85 158.4C253.45 158.8 253.05 159.2 252.75 159.5C252.45 159.8 252.15 159.9 252.05 159.9C251.95 159.9 251.85 159.9 251.65 159.5C251.45 159.2 251.35 158.3 251.35 157.3C251.35 154.8 251.95 151.1 252.55 149.2C253.35 146.5 253.75 143.9 253.75 141.3C253.75 133.7 250.55 126.8 247.05 122.6C243.85 118.8 239.75 116 235.55 113.6C234.25 112.9 232.55 112.3 231.15 111.5C230.45 111.1 229.85 110.7 229.45 110.3C229.05 109.9 228.85 109.5 228.85 108.9C228.85 108.5 228.95 108 229.35 107.3C230.95 104.6 234.55 101.9 237.55 101.7C238.05 101.7 238.45 101.6 238.95 101.6C245.25 101.6 251.65 104.6 256.35 108.7C256.75 109.1 257.35 109.8 257.95 110.5C258.55 111.2 259.25 111.9 260.05 112.2C260.75 112.5 261.55 112.5 262.25 112.5C263.05 112.5 263.75 112.5 264.25 112.6C268.45 113.6 271.65 115.9 273.85 119.1L274.45 119Z" fill="#1C294A"/>
<path d="M207.35 166.9L207.25 167.5C207.25 167.5 215.05 169 224.15 169.4V168.7L223.55 168.5L223.45 168.7C223.25 169.2 222.65 170.4 221.55 171.5C220.45 172.6 218.75 173.5 216.25 173.5H215.75H215.45C214.65 173.5 212.75 173.2 211.05 172.4C209.35 171.5 208.05 170.1 207.95 167.5V167L207.35 166.9L207.25 167.5L207.35 166.9H206.65V167.5C206.65 169.3 207.25 170.7 208.15 171.8C209.45 173.4 211.35 174.1 212.95 174.5C214.45 174.9 215.75 174.9 215.75 174.9V174.2V174.9H216.35C219.65 174.9 221.75 173.4 223.05 172C224.35 170.5 224.85 169.1 224.85 169.1L224.75 168.5L224.25 168.2C219.75 168 215.55 167.6 212.55 167.2C209.45 166.8 207.55 166.4 207.55 166.4L207.05 166.5L206.75 167L207.35 166.9Z" fill="#1C294A"/>
<path d="M242.05 117.2C233.85 119.7 227.15 121.3 219.05 119.5C210.35 117.6 205.75 113 204.15 105.9C202.35 98.3001 205.45 91.9001 209.85 88.8001C216.35 84.2001 222.35 86.7001 222.35 86.7001C222.35 86.7001 223.35 82.6001 230.25 80.1001C234.85 78.4001 240.05 79.1001 244.35 81.3001C248.15 83.3001 250.35 85.9001 252.05 89.8001C252.95 91.7001 253.55 93.7001 254.55 95.6001C255.55 97.4001 256.45 99.3001 257.75 100.9C259.05 102.5 260.65 103.9 262.15 105.3C264.65 107.6 268.05 109.7 269.65 112.8C271.25 116 269.95 120.2 268.55 123.3C267.85 124.8 266.95 126.2 266.15 127.7C265.85 128.3 261.95 133.2 261.95 133.3C260.65 131 260.35 127.6 259.25 125.1C257.95 122.2 256.05 117.4 252.75 116.2C249.35 115.2 245.75 116.1 242.05 117.2Z" fill="#1C294A"/>
<path d="M242.05 117.2L241.85 116.6C236.05 118.3 231.15 119.7 225.95 119.7C223.75 119.7 221.55 119.5 219.25 118.9C210.75 117 206.45 112.7 204.85 105.8C204.55 104.3 204.35 102.9 204.35 101.6C204.35 96.2 206.95 91.8 210.25 89.4C213.15 87.3 216.05 86.8 218.15 86.8C219.35 86.8 220.35 87 221.05 87.1C221.35 87.2 221.65 87.3 221.85 87.3L222.05 87.4H222.15H222.75L223.05 87C223.15 86.7 224.25 83.2 230.55 80.9C232.25 80.3 234.05 80 235.85 80C238.75 80 241.55 80.7 244.15 82.1C247.85 84 249.85 86.5 251.55 90.3C252.35 92.2 253.05 94.2 254.05 96.1C255.05 97.9 255.95 99.8 257.25 101.5C258.55 103.2 260.25 104.6 261.75 106C264.35 108.4 267.65 110.5 269.15 113.3C269.65 114.2 269.85 115.3 269.85 116.4C269.85 118.7 268.95 121.2 268.05 123.2C267.35 124.7 266.45 126.1 265.65 127.6L265.45 127.9C264.95 128.5 264.05 129.8 263.15 130.9C262.75 131.5 262.35 132 262.05 132.4L261.65 132.9L261.55 133.1L261.45 133.2C261.45 133.3 261.35 133.3 261.35 133.5H262.05L262.65 133.2C261.45 131.2 261.15 127.7 259.95 125C259.35 123.5 258.55 121.6 257.45 119.8C256.35 118 254.95 116.4 253.05 115.7C251.85 115.3 250.55 115.1 249.25 115.1C246.85 115.1 244.35 115.7 241.95 116.5L242.05 117.2L242.25 117.8C244.65 117.1 246.95 116.5 249.15 116.5C250.35 116.5 251.45 116.7 252.45 117C253.85 117.5 255.15 118.9 256.15 120.5C257.15 122.1 257.95 124 258.65 125.5C259.65 127.9 260.05 131.3 261.45 133.8C261.55 134.1 261.95 134.2 262.15 134.1C262.45 134 262.65 133.8 262.65 133.5H262.05L262.55 133.8C262.55 133.8 262.55 133.8 262.65 133.5H262.05L262.55 133.8C262.75 133.5 263.65 132.3 264.65 131.1C265.15 130.5 265.55 129.9 265.95 129.4C266.35 128.9 266.55 128.5 266.75 128.3C267.45 126.9 268.35 125.4 269.15 123.9C270.05 121.8 271.05 119.2 271.05 116.6C271.05 115.3 270.85 114.1 270.25 112.9C268.55 109.6 264.95 107.5 262.55 105.2C261.05 103.8 259.45 102.4 258.15 100.8C256.95 99.3 256.05 97.4 255.05 95.6C254.05 93.8 253.45 91.8 252.55 89.9C250.85 86 248.45 83.1 244.55 81.1C241.85 79.7 238.75 78.9 235.65 78.9C233.75 78.9 231.75 79.2 229.95 79.9C222.75 82.4 221.65 86.8 221.65 86.9L222.25 87.1L222.55 86.5C222.45 86.5 220.75 85.7 218.15 85.7C215.75 85.7 212.65 86.3 209.45 88.6C205.75 91.2 202.95 96 202.95 101.9C202.95 103.3 203.15 104.9 203.45 106.4C205.15 113.7 210.05 118.5 218.85 120.4C221.25 121 223.65 121.2 225.85 121.2C231.25 121.2 236.35 119.8 242.15 118.1L242.05 117.2Z" fill="#1C294A"/>
<path d="M196.05 128.9C199.95 130.3 204.95 130.8 204.95 130.8C204.95 130.8 197.75 132 195.55 136.2C195.55 136.2 196.65 134.5 197.05 132.6C197.45 130.7 196.05 128.9 196.05 128.9Z" fill="#FFCE03"/>
<path d="M240.25 138.7C244.35 140.1 249.15 140.6 249.15 140.6C249.15 140.6 242.85 142 242.15 146.5C242.15 146.5 242.65 144.7 242.35 142.6C242.15 140.6 240.25 138.7 240.25 138.7Z" fill="#FFCE03"/>
<path d="M206.05 139.3C205.75 141 204.95 142.4 204.25 142.3C203.55 142.2 203.15 140.7 203.35 138.9C203.65 137.2 204.45 135.8 205.15 135.9C205.85 136.1 206.25 137.6 206.05 139.3Z" fill="#1C294A"/>
<path d="M206.05 139.3L205.35 139.2C205.25 140 205.05 140.6 204.75 141.1L204.35 141.6L204.25 141.7V141.8V141.7V141.8V141.7V141.8V141.7V141.8V141.7L204.15 141.6C203.95 141.4 203.85 140.8 203.85 140C203.85 139.7 203.85 139.4 203.95 139C204.05 138.2 204.25 137.5 204.55 137.1L204.95 136.6L205.05 136.5V136.4V136.5V136.4V136.5V136.4V136.5V136.4V136.5L205.15 136.6C205.35 136.8 205.45 137.4 205.45 138.2C205.45 138.5 205.45 138.8 205.35 139.2L206.05 139.3L206.75 139.4C206.85 139 206.85 138.6 206.85 138.2C206.85 137.5 206.75 136.9 206.55 136.4C206.35 135.9 206.05 135.4 205.35 135.3L205.25 136L205.35 135.4H205.15C204.75 135.4 204.45 135.6 204.15 135.8C203.45 136.5 202.95 137.6 202.75 139C202.65 139.4 202.65 139.8 202.65 140.2C202.65 140.9 202.75 141.5 202.95 142C203.15 142.5 203.45 143 204.15 143.1H204.35C204.75 143.1 205.05 142.9 205.35 142.7C206.05 142 206.55 140.9 206.75 139.5L206.05 139.3Z" fill="#1C294A"/>
<path d="M228.75 142.8C228.45 144.5 227.65 145.9 226.95 145.8C226.25 145.7 225.85 144.2 226.05 142.4C226.35 140.7 227.15 139.3 227.85 139.4C228.55 139.5 228.95 141 228.75 142.8Z" fill="#1C294A"/>
<path d="M228.75 142.8L228.05 142.7C227.95 143.5 227.75 144.2 227.45 144.6L227.05 145.1L226.95 145.2V145.3V145.2V145.3V145.2V145.3V145.2V145.3V145.2V145C226.75 144.8 226.65 144.2 226.65 143.4C226.65 143.1 226.65 142.8 226.75 142.4C226.85 141.6 227.05 140.9 227.35 140.5L227.75 140L227.85 139.9V139.8V139.9V139.8V139.9V139.8V139.9V139.8V139.9L227.95 140C228.15 140.2 228.25 140.8 228.25 141.6C228.25 141.9 228.25 142.2 228.15 142.6L228.75 142.8L229.45 142.9C229.55 142.5 229.55 142.1 229.55 141.7C229.55 141 229.45 140.4 229.25 139.9C229.05 139.4 228.75 138.9 228.05 138.8L227.95 139.5L228.05 138.9H227.85C227.45 138.9 227.15 139.1 226.85 139.3C226.15 140 225.65 141.1 225.45 142.5C225.35 142.9 225.35 143.3 225.35 143.7C225.35 144.4 225.45 145 225.65 145.5C225.85 146 226.15 146.5 226.85 146.6H227.05C227.45 146.6 227.75 146.4 228.05 146.2C228.75 145.5 229.25 144.4 229.45 143L228.75 142.8Z" fill="#1C294A"/>
<path d="M208.95 128.1L205.25 127.8C204.55 127.7 203.85 128.3 203.85 129C203.75 129.7 204.35 130.4 205.05 130.4L208.75 130.7C209.45 130.8 210.15 130.2 210.15 129.5C210.15 128.8 209.65 128.2 208.95 128.1Z" fill="#1C294A"/>
<path d="M226.25 133.3L235.25 135.3C235.95 135.5 236.65 135 236.85 134.3C237.05 133.6 236.55 132.9 235.85 132.7L226.85 130.7C226.15 130.5 225.45 131 225.25 131.7C225.05 132.5 225.55 133.2 226.25 133.3Z" fill="#1C294A"/>
<path d="M196.05 128.9L195.65 130.1C199.75 131.6 204.85 132.1 204.85 132.1L204.95 130.8L204.75 129.5C204.65 129.5 202.85 129.8 200.65 130.7C198.45 131.6 195.85 133 194.45 135.6C194.15 136.2 194.35 137 194.95 137.3C195.55 137.7 196.35 137.5 196.75 136.9C196.75 136.8 198.05 135.1 198.45 132.8C198.55 132.5 198.55 132.2 198.55 131.9C198.55 129.7 197.25 128.2 197.25 128.1L196.05 128.9L195.65 130.1L196.05 128.9L195.05 129.7L195.25 129.5L195.05 129.7L195.25 129.5L195.05 129.7C195.15 129.7 195.85 130.9 195.85 131.9V132.4C195.65 133.2 195.35 134 195.05 134.6C194.95 134.9 194.75 135.1 194.65 135.3L194.55 135.5L195.65 136.2L196.85 136.8C197.65 135.2 199.75 133.9 201.75 133.1C202.75 132.7 203.65 132.4 204.35 132.3C204.65 132.2 204.95 132.2 205.15 132.1L205.45 132C206.05 131.9 206.55 131.3 206.55 130.7C206.55 130 206.05 129.5 205.35 129.4C205.35 129.4 205.05 129.4 204.55 129.3C203.05 129.1 199.55 128.6 196.75 127.6C196.15 127.4 195.55 127.6 195.25 128.1C194.95 128.6 194.95 129.2 195.25 129.7L196.05 128.9Z" fill="#FFCE03"/>
<path d="M214.05 142.1L212.85 141.6C211.85 143.9 210.65 145.5 209.35 146.5C208.05 147.5 206.55 148 204.75 148C204.05 148 203.25 147.9 202.35 147.7C200.25 147.2 198.75 146.3 197.65 145.2C196.65 144 196.05 142.5 196.05 140.6C196.05 139.9 196.15 139.1 196.35 138.3C196.95 135.3 197.85 133.5 198.65 132.6C199.45 131.7 200.15 131.5 201.45 131.5C202.55 131.5 204.05 131.8 205.75 132.2C207.95 132.7 210.15 133.2 211.55 134.1C212.25 134.5 212.85 135 213.25 135.6C213.65 136.2 213.85 136.8 213.85 137.8C213.85 138.8 213.55 140.1 212.85 141.7L214.05 142.1L215.25 142.6C216.05 140.7 216.45 139.1 216.45 137.6C216.45 136.2 216.05 135 215.45 134C214.45 132.5 212.95 131.6 211.35 130.9C209.75 130.2 207.95 129.8 206.35 129.5C204.65 129.1 203.05 128.8 201.55 128.8C199.85 128.8 198.05 129.3 196.75 130.8C195.45 132.3 194.55 134.5 193.85 137.7C193.65 138.7 193.55 139.6 193.55 140.5C193.55 142.9 194.35 145.1 195.75 146.8C197.25 148.5 199.35 149.7 201.85 150.2C202.85 150.4 203.85 150.5 204.75 150.5C207.05 150.5 209.25 149.8 210.95 148.4C212.75 147 214.15 145 215.25 142.4L214.05 142.1Z" fill="#FFCE03"/>
<path d="M222.75 144H221.45V144.3C221.45 147.6 222.15 150.3 223.65 152.4C225.15 154.5 227.55 155.9 230.55 156.5C231.45 156.7 232.35 156.8 233.25 156.8C235.65 156.8 237.85 156 239.55 154.5C241.25 153 242.45 150.9 242.95 148.3C243.35 146.5 243.55 144.9 243.55 143.6C243.55 142.2 243.35 141 242.85 140C242.15 138.5 240.95 137.5 239.55 136.9C238.15 136.3 236.65 136 234.95 135.6C233.15 135.2 231.15 134.8 229.25 134.8C227.25 134.8 225.25 135.2 223.75 136.7C222.25 138.2 221.45 140.5 221.45 143.8L222.75 144H224.05C224.05 141.1 224.75 139.6 225.65 138.7C226.45 137.9 227.65 137.5 229.25 137.5C230.85 137.5 232.65 137.8 234.45 138.2C236.65 138.7 238.45 139.1 239.45 139.8C239.95 140.1 240.25 140.5 240.55 141.1C240.85 141.7 240.95 142.4 240.95 143.6C240.95 144.7 240.75 146 240.45 147.7C239.95 149.9 239.05 151.5 237.85 152.5C236.65 153.6 235.15 154.1 233.25 154.1C232.55 154.1 231.85 154 231.05 153.9C228.55 153.4 226.85 152.3 225.75 150.8C224.65 149.3 224.05 147.1 224.05 144.2V144H222.75Z" fill="#FFCE03"/>
<path d="M231.75 136.5C227.65 135.6 224.55 137.4 219.65 136.4C214.75 135.4 213.15 132.6 209.85 131.9C209.85 131.9 214.15 134.1 214.85 136.1C215.55 138.1 214.45 140.8 214.45 140.8C215.65 138.1 222.45 138.3 222.65 142.6C222.65 142.6 222.95 138.8 224.85 137.7C226.95 136.4 231.75 136.5 231.75 136.5Z" fill="#FFCE03"/>
<path d="M231.75 136.5L232.05 135.2C231.05 135 230.15 134.9 229.25 134.9C226.95 134.9 225.05 135.4 222.95 135.3C222.05 135.3 221.05 135.2 219.95 135C217.75 134.5 216.35 133.7 214.95 132.8C213.55 131.9 212.15 130.9 210.25 130.5C209.65 130.4 208.95 130.7 208.75 131.4C208.55 132 208.85 132.7 209.45 133L209.65 133.1C210.05 133.3 211.05 133.9 211.95 134.6C212.45 134.9 212.85 135.3 213.25 135.7C213.55 136 213.75 136.4 213.85 136.5C213.95 136.8 214.05 137.2 214.05 137.6C214.05 138.2 213.95 138.9 213.75 139.4C213.65 139.7 213.65 139.9 213.55 140L213.45 140.2C213.15 140.9 213.55 141.6 214.15 141.9C214.85 142.2 215.55 141.9 215.85 141.2C215.95 141 216.15 140.7 216.65 140.5C217.15 140.3 217.75 140.2 218.35 140.2C219.25 140.2 220.05 140.4 220.65 140.8C221.25 141.2 221.55 141.6 221.55 142.4C221.55 143.1 222.15 143.7 222.85 143.7C223.55 143.7 224.15 143.2 224.15 142.5V142.4C224.15 142.1 224.25 141.2 224.55 140.4C224.85 139.6 225.25 138.8 225.65 138.6C226.15 138.3 227.35 138 228.55 137.9C229.75 137.8 230.85 137.8 231.45 137.8H231.85C232.55 137.8 233.15 137.3 233.15 136.6C233.25 135.9 232.75 135.3 232.15 135.2L231.75 136.5V135.2C231.75 135.2 231.55 135.2 231.35 135.2C230.75 135.2 229.55 135.2 228.15 135.4C226.85 135.6 225.45 135.8 224.25 136.4C222.75 137.3 222.15 138.9 221.75 140.1C221.35 141.3 221.35 142.4 221.35 142.4L222.65 142.5L223.95 142.4C223.95 140.8 223.05 139.4 221.95 138.7C220.85 137.9 219.45 137.6 218.15 137.6C217.15 137.6 216.25 137.8 215.35 138.2C214.45 138.6 213.65 139.2 213.25 140.2L214.45 140.8L215.65 141.3C215.65 141.2 216.35 139.6 216.35 137.7C216.35 137.1 216.25 136.4 216.05 135.7C215.75 134.9 215.25 134.2 214.65 133.7C212.95 132 210.45 130.8 210.35 130.8L209.75 132L209.45 133.3C210.75 133.6 211.85 134.3 213.25 135.3C214.75 136.2 216.55 137.3 219.15 137.9C220.45 138.2 221.55 138.3 222.65 138.3C225.15 138.3 227.05 137.8 228.95 137.9C229.65 137.9 230.45 138 231.15 138.1L231.75 136.5V135.2V136.5Z" fill="#FFCE03"/>
<path d="M240.25 138.7L239.85 139.9C244.15 141.4 249.05 141.9 249.05 141.9L249.15 140.6L248.85 139.3C248.75 139.3 247.15 139.7 245.25 140.7C244.35 141.2 243.35 141.9 242.55 142.8C241.75 143.7 241.05 144.9 240.85 146.3C240.75 147 241.15 147.6 241.85 147.8C242.55 148 243.25 147.5 243.45 146.9C243.45 146.8 243.85 145.6 243.85 143.9C243.85 143.4 243.85 143 243.75 142.4C243.55 141 242.95 139.9 242.35 139.1C241.75 138.3 241.25 137.8 241.25 137.7L240.25 138.7L239.85 139.9L240.25 138.7L239.35 139.6C239.45 139.7 239.85 140.1 240.25 140.7C240.65 141.3 241.05 142.1 241.15 142.8C241.25 143.2 241.25 143.6 241.25 143.9C241.25 144.6 241.15 145.1 241.15 145.5L241.05 146V146.1L242.35 146.5L243.65 146.7C243.75 145.9 244.15 145.2 244.75 144.5C245.55 143.6 246.85 142.9 247.85 142.4C248.35 142.2 248.85 142 249.15 141.9L249.55 141.8H249.65C250.25 141.7 250.75 141.1 250.65 140.4C250.55 139.7 250.15 139.2 249.45 139.2C249.45 139.2 249.15 139.2 248.65 139.1C247.15 138.9 243.75 138.4 240.85 137.4C240.25 137.2 239.65 137.4 239.35 137.9C239.05 138.4 239.05 139.1 239.55 139.5L240.25 138.7Z" fill="#FFCE03"/>
<path d="M240.05 140C240.05 140 241.85 140.3 244.55 140.8C248.65 141.5 254.85 142.6 260.25 143.6C262.95 144.1 265.45 144.6 267.35 145C268.35 145.2 269.15 145.4 269.75 145.6C270.35 145.8 270.85 145.9 270.85 146C271.05 146.1 271.25 146.3 271.45 146.7C271.65 147.1 271.75 147.7 271.75 148.3C271.75 150.1 271.15 152.4 270.45 153.8C270.15 154.5 270.45 155.2 271.15 155.5C271.85 155.8 272.55 155.5 272.85 154.8C273.65 153 274.35 150.5 274.35 148.2C274.35 147.3 274.25 146.4 273.95 145.6C273.65 144.8 273.05 144 272.15 143.5C271.85 143.4 271.55 143.3 271.15 143.1C269.75 142.7 267.15 142.1 264.05 141.5C254.75 139.6 240.55 137.2 240.55 137.2C239.85 137.1 239.15 137.6 239.05 138.3C238.85 139.2 239.35 139.9 240.05 140Z" fill="#FFCE03"/>
<path d="M266.55 147.4C261.65 153.9 263.65 163.7 258.65 171C265.95 169.9 273.15 166.8 277.75 158.8C281.75 152.1 276.15 143.2 266.55 147.4Z" fill="white"/>
<path d="M266.55 147.4L266.05 147C263.45 150.4 262.75 154.6 262.05 158.8C261.35 163 260.55 167.1 258.15 170.6V171.3C258.25 171.5 258.55 171.6 258.85 171.6C266.25 170.5 273.65 167.3 278.45 159.1C279.35 157.5 279.75 155.8 279.75 154.2C279.75 152 278.95 149.8 277.45 148.2C275.95 146.6 273.85 145.6 271.35 145.6C269.85 145.6 268.15 146 266.35 146.8L266.05 147L266.55 147.4L266.85 148C268.55 147.3 270.05 147 271.35 147C275.75 147 278.45 150.4 278.45 154.3C278.45 155.7 278.05 157.2 277.25 158.6C272.65 166.4 265.85 169.3 258.65 170.5L258.75 171.1L259.25 171.5C261.85 167.7 262.65 163.3 263.35 159.1C264.05 154.9 264.85 151 267.15 147.9L266.55 147.4L266.85 148L266.55 147.4Z" fill="#1C294A"/>
<path d="M215.85 141.4C215.85 141.4 206.35 150.6 206.05 152.9C205.75 155.2 214.35 159.6 214.35 159.6L215.85 141.4Z" fill="white"/>
<path d="M215.45 141C215.45 141 213.05 143.3 210.65 145.9C209.45 147.2 208.25 148.6 207.25 149.8C206.75 150.4 206.35 151 206.05 151.5C205.75 152 205.55 152.4 205.45 152.9V153.1C205.45 154.1 206.15 154.8 206.95 155.6C209.45 157.9 214.05 160.3 214.05 160.3C214.35 160.5 214.75 160.3 214.95 160C215.15 159.7 214.95 159.3 214.65 159.1C214.65 159.1 214.15 158.8 213.35 158.4C212.25 157.8 210.45 156.7 209.05 155.7C208.35 155.2 207.75 154.6 207.25 154.2C206.85 153.7 206.65 153.3 206.65 153.2C206.65 153.1 206.85 152.7 207.05 152.3C208.05 150.8 210.35 148.2 212.35 146C214.45 143.8 216.25 142.1 216.25 142.1C216.55 141.8 216.55 141.4 216.25 141.2C216.05 140.7 215.65 140.7 215.45 141Z" fill="#1C294A"/>
<path d="M119.35 223.9C118.85 228.8 118.45 233.6 118.05 238.5C117.65 243.8 117.25 249.1 117.15 254.4C117.05 262.3 117.65 270.6 122.25 277C122.75 277.7 123.55 278.5 124.35 278.1C126.95 267.1 129.95 259.7 128.75 249.1C128.45 246.2 128.95 242.4 128.55 239.5C128.25 237.1 127.45 232.2 126.85 229.8C125.95 226.1 122.25 218.7 121.15 218.9C119.75 219.1 119.45 222.8 119.35 223.9Z" fill="#1C294A"/>
<path d="M134.65 220.5C134.65 220.5 101.55 218.4 93.2501 216.4C83.5501 216.4 78.0501 221.2 78.7501 230.2C79.4501 239.2 73.9501 247.5 99.4501 254.4C110.05 257.3 127.05 260.6 140.15 260.6C144.25 260.6 164.65 266.8 183.65 266.1C142.95 230.2 134.65 220.5 134.65 220.5Z" fill="white"/>
<path d="M174.85 262.6L126.35 219.6L125.95 219.4C122.95 219.1 108.15 217.6 101.65 216.8C101.25 216.8 100.95 217 100.95 217.4C100.95 217.8 101.15 218.1 101.55 218.1C107.95 218.9 122.85 220.5 125.65 220.7L172.55 262.3C153.65 261.5 120.35 261.5 95.2501 253.1C95.2501 253.2 95.2501 253.2 95.2501 253.3C95.2501 253.7 94.95 254.1 94.55 254.3C120.85 263.2 155.75 262.8 174.25 263.8C174.55 263.8 174.75 263.7 174.85 263.4C175.05 263.1 175.05 262.8 174.85 262.6Z" fill="#1C294A"/>
<path d="M207.55 221.8C197.95 217.8 182.75 213.4 178.45 214.6C169.85 217.1 160.05 217.6 151.15 218.5C142.55 219.4 135.65 219.6 126.05 219.5C125.85 224.2 126.55 228.9 127.45 233.5C130.35 248.1 128.65 262.9 124.25 277.6L207.55 221.8Z" fill="white"/>
<path d="M179.25 214.8C190.25 219 198.65 229.3 200.65 240.9C200.75 241.3 201.05 241.5 201.45 241.4C201.85 241.3 202.05 241 201.95 240.6C199.85 228.5 191.15 217.9 179.75 213.5C179.45 213.4 179.05 213.5 178.85 213.9C178.75 214.3 178.95 214.6 179.25 214.8Z" fill="#1C294A"/>
<path d="M141.95 253.7C138.95 256.5 122.35 275.2 125.25 278.1C139.65 281.3 171.15 288 177.75 286.3C180.55 285.6 183.25 284.3 185.75 282.8C188.95 280.9 192.05 278.3 193.05 274.8C193.55 273 193.45 271 193.25 269.1C192.75 263.6 191.45 258.1 189.45 252.9C186.75 246 181.55 237.9 173.35 237.1C170.35 236.8 167.65 238.3 164.95 239.6C161.15 241.4 157.25 243 153.65 245.1C149.45 247.6 145.55 250.5 141.95 253.7Z" fill="white"/>
<path d="M124.25 278.3C130.65 279.8 140.05 281.2 149.45 283.1C158.85 285 168.25 287.5 174.45 291C176.15 292 177.85 293.2 179.15 294.7C180.45 296.2 181.25 297.8 181.25 299.5C181.25 299.8 181.25 300 181.15 300.3C181.15 300.7 181.35 301 181.75 301C182.15 301 182.45 300.8 182.45 300.4C182.45 300.1 182.55 299.8 182.55 299.4C182.55 297.3 181.55 295.3 180.15 293.7C178.75 292.1 176.95 290.8 175.15 289.7C168.65 286.1 159.25 283.6 149.75 281.7C140.35 279.8 130.85 278.4 124.55 276.9C124.15 276.8 123.85 277 123.75 277.4C123.65 277.9 123.85 278.3 124.25 278.3Z" fill="#1C294A"/>
<path d="M118.85 97.9001C118.85 97.9001 126.25 84.0001 126.15 74.1001C126.15 74.1001 126.45 67.0001 130.25 70.4001C130.25 70.4001 134.45 74.8001 132.05 84.2001C132.05 84.2001 128.45 99.6001 131.55 104L118.85 97.9001Z" fill="white"/>
<path d="M118.45 173.2L125.85 131.5C125.85 131.5 133.25 127.3 137.25 121.8C137.25 121.8 141.25 116 144.85 113.5C144.85 113.5 151.35 109 150.65 105.5C150.65 105.5 150.45 101.7 142.35 105.7C142.35 105.7 135.55 111 132.55 105.8C129.55 100.6 130.65 96 130.65 96L114.45 113.6L104.55 135.4L118.45 173.2Z" fill="white"/>
<path d="M123.45 108.6C126.85 108.1 125.95 102.8 125.05 99.4001C124.45 97.0001 123.25 94.4001 120.85 93.3001C119.95 92.9001 118.75 93.1001 117.85 93.5001C116.95 93.9001 116.15 94.6001 115.25 95.1001C113.75 95.9001 111.95 96.3001 110.65 97.5001C109.15 98.9001 108.55 101 107.15 102.6C106.35 103.6 105.25 104.2 104.35 105.1C100.75 108.8 101.55 114.2 101.55 118.9C101.65 124.3 101.35 129.8 99.95 135.1C97.55 144.4 95.65 151.2 92.35 160.2C87.55 173.1 84.75 187.4 80.55 200.4C78.85 205.8 77.25 211.3 76.25 216.9C74.35 227.1 70.85 237.9 79.35 245.5C82.95 248.7 94.95 252.6 99.45 254.3C125.85 264.2 115.35 219.1 115.45 218.8L123.45 108.6Z" fill="white"/>
<path d="M121.75 92.6C125.15 86.9 125.95 83.7 126.55 77.1C126.75 75 126.95 71.6 127.95 69.5C128.05 69.2 127.95 68.8 127.65 68.7C127.35 68.6 126.95 68.7 126.85 69C125.75 71.5 125.55 74.9 125.35 77C124.75 83.6 124.05 86.2 120.75 91.9C120.55 92.2 120.65 92.6 120.95 92.8C121.15 93 121.55 92.9 121.75 92.6Z" fill="#1C294A"/>
<path d="M114.15 96.4001C117.15 98.1001 119.15 102.1 120.45 104C121.65 105.7 122.25 107.7 122.35 109.8V110C122.35 110.8 122.05 112 121.45 112.9C120.85 113.8 120.05 114.4 119.05 114.4C118.75 114.4 118.45 114.4 118.15 114.3C117.85 114.2 117.55 114.4 117.45 114.7C117.35 115 117.55 115.3 117.85 115.4C118.25 115.5 118.65 115.6 119.05 115.6C120.55 115.6 121.75 114.7 122.45 113.6C123.15 112.5 123.55 111.2 123.55 110.1V109.9C123.45 107.6 122.75 105.4 121.45 103.5C120.25 101.7 118.25 97.5 114.75 95.5C114.45 95.3 114.15 95.4 113.95 95.7C113.85 95.9 113.95 96.3001 114.15 96.4001Z" fill="#1C294A"/>
<path d="M106.95 103.9L107.45 103.8C108.35 103.8 109.45 104.4 110.35 105.1C113.65 107.5 116.35 110.8 117.05 114.6C117.15 114.9 117.45 115.1 117.75 115.1C118.05 115 118.25 114.7 118.25 114.4C117.45 110.1 114.45 106.6 111.15 104.1C110.15 103.4 108.95 102.6 107.55 102.6C107.25 102.6 107.05 102.6 106.75 102.7C106.45 102.8 106.25 103.1 106.35 103.4C106.35 103.8 106.65 104 106.95 103.9Z" fill="#1C294A"/>
<path d="M107.25 114.3C108.85 115.3 109.15 115.4 110.75 116.4C111.05 116.6 111.35 116.5 111.55 116.2C111.75 115.9 111.65 115.6 111.35 115.4C109.75 114.4 109.45 114.3 107.85 113.3C107.55 113.1 107.25 113.2 107.05 113.5C106.95 113.8 106.95 114.2 107.25 114.3Z" fill="#1C294A"/>
<path d="M107.95 114.9C108.15 115.3 108.45 116.1 108.75 116.8C109.05 117.6 109.45 118.3 109.85 118.8C110.25 119.3 110.55 119.6 110.85 119.9C111.15 120.2 111.55 120.4 112.05 120.5C112.55 120.6 113.05 120.7 113.55 120.7H114.15C114.75 120.6 115.25 120.3 115.75 120C117.25 119 118.45 117 118.45 115.1V114.7C118.45 114.4 118.15 114.1 117.85 114.2C117.55 114.2 117.25 114.5 117.35 114.8V115.1C117.35 116.4 116.35 118.3 115.15 119C114.75 119.2 114.45 119.4 114.05 119.5H113.65C113.25 119.5 112.85 119.4 112.45 119.3C112.05 119.2 111.85 119.1 111.75 119C111.55 118.8 111.35 118.5 110.95 118C110.75 117.7 110.35 117 110.05 116.3C109.75 115.6 109.45 114.8 109.25 114.4C109.15 114.1 108.75 114 108.45 114.1C107.95 114.2 107.75 114.6 107.95 114.9Z" fill="#1C294A"/>
<path d="M126.15 132C129.85 129.6 133.35 127.9 136.25 124.2C138.75 121.1 140.35 117.4 143.35 115.2C144.65 114.3 146.05 113.5 147.25 112.3C147.85 111.7 148.85 110.8 149.65 109.7C150.45 108.6 151.25 107.5 151.25 106.4C151.25 105.6 151.05 104.7 150.35 104L149.95 104.5L150.45 104C150.05 103.6 149.55 103.4 149.05 103.2L148.85 103.9L149.05 103.3C148.65 103.2 148.25 103.1 147.85 103.1C146.15 103.1 144.25 103.9 142.45 104.8C140.65 105.7 138.95 106.7 137.75 107.1C137.25 107.3 136.75 107.4 136.35 107.4C135.35 107.4 134.45 106.9 133.65 106.1C132.85 105.3 132.25 104.1 131.85 103L131.25 103.2L131.85 103C131.45 101.9 131.35 100.7 131.25 99.4C131.25 99 131.25 98.5 131.25 98.1C131.25 95.1 131.75 92.1 132.15 89C132.55 85.7 132.95 82.4 133.25 79C133.35 78.4 133.35 77.8 133.35 77.2C133.35 74.8 132.85 72.5 131.25 70.4C130.95 70 130.55 69.5 130.05 69.2C129.55 68.8 128.95 68.5 128.25 68.5C127.95 68.5 127.55 68.6 127.25 68.8C126.95 69 126.85 69.4 126.95 69.7C127.15 70 127.55 70.1 127.85 70L128.15 69.9C128.35 69.9 128.75 70 129.05 70.3C129.45 70.6 129.75 71 129.95 71.3C131.35 73.1 131.75 75.1 131.75 77.3C131.75 77.9 131.75 78.4 131.65 79C131.35 82.3 130.95 85.6 130.55 88.9C130.15 92 129.65 95 129.65 98.1C129.65 98.5 129.65 99 129.65 99.4H130.35H129.65C129.75 100.7 129.85 102.1 130.25 103.4C130.75 104.7 131.35 106 132.35 107C133.25 108 134.55 108.8 136.05 108.8C136.65 108.8 137.25 108.7 137.85 108.4C139.25 107.8 140.95 106.9 142.65 106C144.35 105.1 146.05 104.5 147.45 104.5C147.75 104.5 148.05 104.5 148.35 104.6C148.75 104.7 148.95 104.8 149.15 105C149.45 105.3 149.65 105.8 149.65 106.4C149.65 106.8 149.15 107.9 148.35 108.9C147.55 109.9 146.65 110.8 146.05 111.4C144.95 112.4 143.65 113.2 142.25 114.2C138.85 116.7 137.15 120.5 134.85 123.4C132.15 126.9 128.95 128.5 125.05 130.9C124.75 131.1 124.65 131.5 124.85 131.8C125.45 132.1 125.85 132.2 126.15 132Z" fill="#1C294A"/>
<path d="M125.15 131.1C118.35 165.9 114.65 187.5 114.35 220.3C114.35 220.7 114.65 221 115.05 221C115.45 221 115.75 220.7 115.75 220.3C116.05 187.6 119.75 166.1 126.55 131.3C126.65 130.9 126.35 130.6 126.05 130.5C125.55 130.6 125.25 130.8 125.15 131.1Z" fill="#1C294A"/>
<path d="M117.85 116.6H118.05C118.75 116.6 119.45 117.1 120.15 117.7C121.45 118.8 122.75 120 123.55 121.4C124.35 122.7 124.85 124.1 124.85 125.5V126C124.85 126.3 125.05 126.6 125.35 126.6C125.65 126.6 125.95 126.4 125.95 126.1V125.5C125.95 123.8 125.35 122.1 124.45 120.7C123.45 119.1 122.15 117.9 120.75 116.7C119.95 116.1 119.05 115.3 117.85 115.3H117.55C117.25 115.3 117.05 115.6 117.05 115.9C117.25 116.4 117.55 116.6 117.85 116.6Z" fill="#1C294A"/>
<path d="M126.45 104.7C126.45 105.8 126.35 106.8 125.85 107.6C125.45 108.5 124.55 109.1 123.45 109.2C123.05 109.2 122.75 109 122.75 108.6C122.75 108.2 122.95 107.9 123.35 107.9C124.05 107.8 124.45 107.5 124.75 106.9C125.05 106.4 125.15 105.5 125.15 104.6C125.15 103 124.75 101.1 124.35 99.5C123.75 97.2 122.55 94.7 120.55 93.8C120.25 93.7 119.95 93.6 119.65 93.6C119.15 93.6 118.55 93.8 118.05 94C117.25 94.4 116.35 95 115.45 95.6C113.85 96.6 112.15 97 110.95 98C109.55 99.2 109.05 101.3 107.55 103C106.65 104 105.55 104.7 104.75 105.6C102.45 107.9 102.05 111.1 102.05 114.5C102.05 116 102.15 117.5 102.15 119C102.15 119.4 102.15 119.8 102.15 120.2C102.15 125.3 101.75 130.4 100.55 135.4C98.15 144.7 96.2501 151.5 92.9501 160.6C88.2501 173.4 85.3501 187.7 81.1501 200.8C79.4501 206.2 77.8501 211.6 76.8501 217.2C75.8501 222.4 74.55 227.7 74.55 232.6C74.55 237.3 75.75 241.6 79.75 245.2C83.25 248.3 87.8501 250.6 92.3501 252.2C92.7501 252.4 93.15 252.5 93.55 252.6C94.15 252.8 94.6501 253 95.2501 253.2C95.2501 253.3 95.2501 253.3 95.2501 253.4C95.2501 253.8 94.95 254.2 94.55 254.4C94.15 254.3 93.7501 254.1 93.2501 254C92.7501 253.8 92.2501 253.6 91.7501 253.5C87.1501 251.8 82.45 249.5 78.75 246.2C74.45 242.3 73.05 237.5 73.05 232.6C73.05 227.5 74.4501 222.1 75.3501 216.9C76.3501 211.3 77.9501 205.8 79.6501 200.4C83.8501 187.4 86.6501 173.1 91.4501 160.1C94.7501 151.1 96.65 144.4 99.05 135.1C100.25 130.3 100.65 125.3 100.65 120.3C100.65 119.9 100.65 119.5 100.65 119.1C100.65 117.7 100.55 116.2 100.55 114.6C100.55 111.2 100.95 107.6 103.65 104.8C104.65 103.8 105.65 103.1 106.45 102.3C107.65 100.9 108.25 98.7 109.95 97.2C111.45 95.9 113.25 95.5 114.65 94.7C115.45 94.2 116.35 93.6 117.35 93.1C117.95 92.8 118.75 92.6 119.45 92.6C119.95 92.6 120.45 92.7 120.85 92.9C123.45 94.2 124.65 97 125.35 99.5C126.05 100.8 126.45 102.9 126.45 104.7Z" fill="#1C294A"/>
<path d="M207.85 221.2C199.25 217.7 186.55 213.8 180.45 213.7C179.65 213.7 178.95 213.8 178.35 213.9C169.85 216.3 160.05 216.8 151.15 217.7C143.65 218.5 137.45 218.7 129.65 218.7C128.55 218.7 127.35 218.7 126.15 218.7C125.75 218.7 125.55 219 125.45 219.3C125.45 219.9 125.45 220.6 125.45 221.2C125.45 225.3 126.05 229.4 126.85 233.5C127.85 238.4 128.25 243.3 128.25 248.2C128.25 257.9 126.55 267.6 123.65 277.3C123.55 277.7 123.75 278 124.05 278.1C124.35 278.2 124.75 278 124.85 277.7C127.75 267.9 129.45 258.1 129.45 248.2C129.45 243.2 128.95 238.2 128.05 233.2C127.25 229.2 126.65 225.2 126.65 221.2C126.65 220.6 126.65 220 126.65 219.4H125.95V220.1C127.15 220.1 128.25 220.1 129.45 220.1C137.35 220.1 143.55 219.9 151.15 219.1C160.05 218.2 169.85 217.7 178.55 215.2C178.95 215.1 179.55 215 180.35 215C186.05 215 198.85 218.9 207.25 222.4C207.55 222.5 207.95 222.4 208.15 222C208.35 221.7 208.15 221.3 207.85 221.2Z" fill="#1C294A"/>
</g>
<defs>
<clipPath id="clip0_1519_121099">
<rect width="410" height="305" fill="white" transform="translate(19 68)"/>
</clipPath>
</defs>
</svg>
